<?xml version="1.0" encoding="UTF-8"?>
<svg id="Layer_2" data-name="Layer 2" xmlns="http://www.w3.org/2000/svg" viewBox="0 0 412.2 238.79">
  <defs>
    <style>
      .cls-1 {
        fill: #dfb95e;
      }

      .cls-2 {
        fill: #fff;
      }

      .cls-3 {
        fill: none;
        stroke: #000;
      }
    </style>
  </defs>
  <g id="Layer_1-2" data-name="Layer 1">
    <g>
      <g>
        <g>
          <path d="M20.41,238.41c-3.44,0-6.79-1.89-8.76-4.92-1.92-2.97-2.19-6.53-.73-9.78,13.11-29.19,27-58.14,41.28-86.04,7.15-13.97,14.57-28.02,22.06-41.76,3.81-6.99,7.73-14.08,11.66-21.08.55-.98,1.16-2.25,1.8-3.6,2.59-5.43,5.81-12.18,11.9-14.51.99-.38,2.03-.57,3.11-.57,4.45,0,8.71,3.34,9.7,7.6.94,4.06.87,8.34.8,12.11-.02,1.05-.04,2.09-.03,3.11.02,4.79-.05,9.8-.21,14.91-.29,9.34-.86,19.06-1.76,29.72-.31,3.64-.65,7.36-1.03,11.24,3.45-5.87,6.84-11.52,10.23-17.06,12.92-21.08,25.51-39.85,38.5-57.39,1.99-2.68,5.21-4.28,8.62-4.28,2.76,0,5.28,1.03,7.09,2.89,1.77,1.82,2.7,4.31,2.62,7.03-.85,30.92-10.2,60.21-19.25,88.52-6.56,20.54-13.35,41.78-16.69,63.22-.73,4.7-4.36,7.85-9.02,7.85h0c-3.1,0-6.16-1.42-8.19-3.79-1.96-2.29-2.79-5.23-2.31-8.26,3.41-21.86,10.27-43.16,16.9-63.76,4.61-14.33,9.33-28.98,12.85-43.81-4.95,7.57-9.91,15.42-14.93,23.65-5.93,9.71-11.86,19.8-18.14,30.83-2.69,4.72-5.48,9.69-8.29,14.76-.61,1.1-1.22,2.34-1.86,3.65-1.66,3.39-3.53,7.23-6.33,10.21-1.79,1.91-4.45,3.01-7.29,3.01-3.98,0-7.36-2.1-8.8-5.47-1.8-4.19-1.07-8.43-.49-11.84.13-.78.27-1.55.36-2.31.66-5.2,1.31-10.4,1.93-15.61,1.34-11.23,2.34-20.53,3.13-29.26.76-8.41,1.33-16.2,1.72-23.64-1.2,2.28-2.41,4.55-3.63,6.8-7.11,13.16-14.16,26.58-20.94,39.9-13.57,26.65-26.8,54.29-39.32,82.16-1.56,3.48-4.65,5.55-8.27,5.55Z"/>
          <path d="M19.41,237.41c-3.44,0-6.79-1.89-8.76-4.92-1.92-2.97-2.19-6.53-.73-9.78,13.11-29.19,27-58.14,41.28-86.04,7.15-13.97,14.57-28.02,22.06-41.76,3.81-6.99,7.73-14.08,11.66-21.08.55-.98,1.16-2.25,1.8-3.6,2.59-5.43,5.81-12.18,11.9-14.51.99-.38,2.03-.57,3.11-.57,4.45,0,8.71,3.34,9.7,7.6.94,4.06.87,8.34.8,12.11-.02,1.05-.04,2.09-.03,3.11.02,4.79-.05,9.8-.21,14.91-.29,9.34-.86,19.06-1.76,29.72-.31,3.64-.65,7.36-1.03,11.24,3.45-5.87,6.84-11.52,10.23-17.06,12.92-21.08,25.51-39.85,38.5-57.39,1.99-2.68,5.21-4.28,8.62-4.28,2.76,0,5.28,1.03,7.09,2.89,1.77,1.82,2.7,4.31,2.62,7.03-.85,30.92-10.2,60.21-19.25,88.52-6.56,20.54-13.35,41.78-16.69,63.22-.73,4.7-4.36,7.85-9.02,7.85h0c-3.1,0-6.16-1.42-8.19-3.79-1.96-2.29-2.79-5.23-2.31-8.26,3.41-21.86,10.27-43.16,16.9-63.76,4.61-14.33,9.33-28.98,12.85-43.81-4.95,7.57-9.91,15.42-14.93,23.65-5.93,9.71-11.86,19.8-18.14,30.83-2.69,4.72-5.48,9.69-8.29,14.76-.61,1.1-1.22,2.34-1.86,3.65-1.66,3.39-3.53,7.23-6.33,10.21-1.79,1.91-4.45,3.01-7.29,3.01-3.98,0-7.36-2.1-8.8-5.47-1.8-4.19-1.07-8.43-.49-11.84.13-.78.27-1.55.36-2.31.66-5.2,1.31-10.4,1.93-15.61,1.34-11.23,2.34-20.53,3.13-29.26.76-8.41,1.33-16.2,1.72-23.64-1.2,2.28-2.41,4.55-3.63,6.8-7.11,13.16-14.16,26.58-20.94,39.9-13.57,26.65-26.8,54.29-39.32,82.16-1.56,3.48-4.65,5.55-8.27,5.55Z"/>
          <path d="M18.41,236.41c-3.44,0-6.79-1.89-8.76-4.92-1.92-2.97-2.19-6.53-.73-9.78,13.11-29.19,27-58.14,41.28-86.04,7.15-13.97,14.57-28.02,22.06-41.76,3.81-6.99,7.73-14.08,11.66-21.08.55-.98,1.16-2.25,1.8-3.6,2.59-5.43,5.81-12.18,11.9-14.51.99-.38,2.03-.57,3.11-.57,4.45,0,8.71,3.34,9.7,7.6.94,4.06.87,8.34.8,12.11-.02,1.05-.04,2.09-.03,3.11.02,4.79-.05,9.8-.21,14.91-.29,9.34-.86,19.06-1.76,29.72-.31,3.64-.65,7.36-1.03,11.24,3.45-5.87,6.84-11.52,10.23-17.06,12.92-21.08,25.51-39.85,38.5-57.39,1.99-2.68,5.21-4.28,8.62-4.28,2.76,0,5.28,1.03,7.09,2.89,1.77,1.82,2.7,4.31,2.62,7.03-.85,30.92-10.2,60.21-19.25,88.52-6.56,20.54-13.35,41.78-16.69,63.22-.73,4.7-4.36,7.85-9.02,7.85h0c-3.1,0-6.16-1.42-8.19-3.79-1.96-2.29-2.79-5.23-2.31-8.26,3.41-21.86,10.27-43.16,16.9-63.76,4.61-14.33,9.33-28.98,12.85-43.81-4.95,7.57-9.91,15.42-14.93,23.65-5.93,9.71-11.86,19.8-18.14,30.83-2.69,4.72-5.48,9.69-8.29,14.76-.61,1.1-1.22,2.34-1.86,3.65-1.66,3.39-3.53,7.23-6.33,10.21-1.79,1.91-4.45,3.01-7.29,3.01-3.98,0-7.36-2.1-8.8-5.47-1.8-4.19-1.07-8.43-.49-11.84.13-.78.27-1.55.36-2.31.66-5.2,1.31-10.4,1.93-15.61,1.34-11.23,2.34-20.53,3.13-29.26.76-8.41,1.33-16.2,1.72-23.64-1.2,2.28-2.41,4.55-3.63,6.8-7.11,13.16-14.16,26.58-20.94,39.9-13.57,26.65-26.8,54.29-39.32,82.16-1.56,3.48-4.65,5.55-8.27,5.55Z"/>
          <path d="M17.41,235.41c-3.44,0-6.79-1.89-8.76-4.92-1.92-2.97-2.19-6.53-.73-9.78,13.11-29.19,27-58.14,41.28-86.04,7.15-13.97,14.57-28.02,22.06-41.76,3.81-6.99,7.73-14.08,11.66-21.08.55-.98,1.16-2.25,1.8-3.6,2.59-5.43,5.81-12.18,11.9-14.51.99-.38,2.03-.57,3.11-.57,4.45,0,8.71,3.34,9.7,7.6.94,4.06.87,8.34.8,12.11-.02,1.05-.04,2.09-.03,3.11.02,4.79-.05,9.8-.21,14.91-.29,9.34-.86,19.06-1.76,29.72-.31,3.64-.65,7.36-1.03,11.24,3.45-5.87,6.84-11.52,10.23-17.06,12.92-21.08,25.51-39.85,38.5-57.39,1.99-2.68,5.21-4.28,8.62-4.28,2.76,0,5.28,1.03,7.09,2.89,1.77,1.82,2.7,4.31,2.62,7.03-.85,30.92-10.2,60.21-19.25,88.52-6.56,20.54-13.35,41.78-16.69,63.22-.73,4.7-4.36,7.85-9.02,7.85h0c-3.1,0-6.16-1.42-8.19-3.79-1.96-2.29-2.79-5.23-2.31-8.26,3.41-21.86,10.27-43.16,16.9-63.76,4.61-14.33,9.33-28.98,12.85-43.81-4.95,7.57-9.91,15.42-14.93,23.65-5.93,9.71-11.86,19.8-18.14,30.83-2.69,4.72-5.48,9.69-8.29,14.76-.61,1.1-1.22,2.34-1.86,3.65-1.66,3.39-3.53,7.23-6.33,10.21-1.79,1.91-4.45,3.01-7.29,3.01-3.98,0-7.36-2.1-8.8-5.47-1.8-4.19-1.07-8.43-.49-11.84.13-.78.27-1.55.36-2.31.66-5.2,1.31-10.4,1.93-15.61,1.34-11.23,2.34-20.53,3.13-29.26.76-8.41,1.33-16.2,1.72-23.64-1.2,2.28-2.41,4.55-3.63,6.8-7.11,13.16-14.16,26.58-20.94,39.9-13.57,26.65-26.8,54.29-39.32,82.16-1.56,3.48-4.65,5.55-8.27,5.55Z"/>
          <path d="M16.41,234.41c-3.44,0-6.79-1.89-8.76-4.92-1.92-2.97-2.19-6.53-.73-9.78,13.11-29.19,27-58.14,41.28-86.04,7.15-13.97,14.57-28.02,22.06-41.76,3.81-6.99,7.73-14.08,11.66-21.08.55-.98,1.16-2.25,1.8-3.6,2.59-5.43,5.81-12.18,11.9-14.51.99-.38,2.03-.57,3.11-.57,4.45,0,8.71,3.34,9.7,7.6.94,4.06.87,8.34.8,12.11-.02,1.05-.04,2.09-.03,3.11.02,4.79-.05,9.8-.21,14.91-.29,9.34-.86,19.06-1.76,29.72-.31,3.64-.65,7.36-1.03,11.24,3.45-5.87,6.84-11.52,10.23-17.06,12.92-21.08,25.51-39.85,38.5-57.39,1.99-2.68,5.21-4.28,8.62-4.28,2.76,0,5.28,1.03,7.09,2.89,1.77,1.82,2.7,4.31,2.62,7.03-.85,30.92-10.2,60.21-19.25,88.52-6.56,20.54-13.35,41.78-16.69,63.22-.73,4.7-4.36,7.85-9.02,7.85h0c-3.1,0-6.16-1.42-8.19-3.79-1.96-2.29-2.79-5.23-2.31-8.26,3.41-21.86,10.27-43.16,16.9-63.76,4.61-14.33,9.33-28.98,12.85-43.81-4.95,7.57-9.91,15.42-14.93,23.65-5.93,9.71-11.86,19.8-18.14,30.83-2.69,4.72-5.48,9.69-8.29,14.76-.61,1.1-1.22,2.34-1.86,3.65-1.66,3.39-3.53,7.23-6.33,10.21-1.79,1.91-4.45,3.01-7.29,3.01-3.98,0-7.36-2.1-8.8-5.47-1.8-4.19-1.07-8.43-.49-11.84.13-.78.27-1.55.36-2.31.66-5.2,1.31-10.4,1.93-15.61,1.34-11.23,2.34-20.53,3.13-29.26.76-8.41,1.33-16.2,1.72-23.64-1.2,2.28-2.41,4.55-3.63,6.8-7.11,13.16-14.16,26.58-20.94,39.9-13.57,26.65-26.8,54.29-39.32,82.16-1.56,3.48-4.65,5.55-8.27,5.55Z"/>
          <path d="M15.41,233.41c-3.44,0-6.79-1.89-8.76-4.92-1.92-2.97-2.19-6.53-.73-9.78,13.11-29.19,27-58.14,41.28-86.04,7.15-13.97,14.57-28.02,22.06-41.76,3.81-6.99,7.73-14.08,11.66-21.08.55-.98,1.16-2.25,1.8-3.6,2.59-5.43,5.81-12.18,11.9-14.51.99-.38,2.03-.57,3.11-.57,4.45,0,8.71,3.34,9.7,7.6.94,4.06.87,8.34.8,12.11-.02,1.05-.04,2.09-.03,3.11.02,4.79-.05,9.8-.21,14.91-.29,9.34-.86,19.06-1.76,29.72-.31,3.64-.65,7.36-1.03,11.24,3.45-5.87,6.84-11.52,10.23-17.06,12.92-21.08,25.51-39.85,38.5-57.39,1.99-2.68,5.21-4.28,8.62-4.28,2.76,0,5.28,1.03,7.09,2.89,1.77,1.82,2.7,4.31,2.62,7.03-.85,30.92-10.2,60.21-19.25,88.52-6.56,20.54-13.35,41.78-16.69,63.22-.73,4.7-4.36,7.85-9.02,7.85h0c-3.1,0-6.16-1.42-8.19-3.79-1.96-2.29-2.79-5.23-2.31-8.26,3.41-21.86,10.27-43.16,16.9-63.76,4.61-14.33,9.33-28.98,12.85-43.81-4.95,7.57-9.91,15.42-14.93,23.65-5.93,9.71-11.86,19.8-18.14,30.83-2.69,4.72-5.48,9.69-8.29,14.76-.61,1.1-1.22,2.34-1.86,3.65-1.66,3.39-3.53,7.23-6.33,10.21-1.79,1.91-4.45,3.01-7.29,3.01-3.98,0-7.36-2.1-8.8-5.47-1.8-4.19-1.07-8.43-.49-11.84.13-.78.27-1.55.36-2.31.66-5.2,1.31-10.4,1.93-15.61,1.34-11.23,2.34-20.53,3.13-29.26.76-8.41,1.33-16.2,1.72-23.64-1.2,2.28-2.41,4.55-3.63,6.8-7.11,13.16-14.16,26.58-20.94,39.9-13.57,26.65-26.8,54.29-39.32,82.16-1.56,3.48-4.65,5.55-8.27,5.55Z"/>
          <path d="M14.41,232.41c-3.44,0-6.79-1.89-8.76-4.92-1.92-2.97-2.19-6.53-.73-9.78,13.11-29.19,27-58.14,41.28-86.04,7.15-13.97,14.57-28.02,22.06-41.76,3.81-6.99,7.73-14.08,11.66-21.08.55-.98,1.16-2.25,1.8-3.6,2.59-5.43,5.81-12.18,11.9-14.51.99-.38,2.03-.57,3.11-.57,4.45,0,8.71,3.34,9.7,7.6.94,4.06.87,8.34.8,12.11-.02,1.05-.04,2.09-.03,3.11.02,4.79-.05,9.8-.21,14.91-.29,9.34-.86,19.06-1.76,29.72-.31,3.64-.65,7.36-1.03,11.24,3.45-5.87,6.84-11.52,10.23-17.06,12.92-21.08,25.51-39.85,38.5-57.39,1.99-2.68,5.21-4.28,8.62-4.28,2.76,0,5.28,1.03,7.09,2.89,1.77,1.82,2.7,4.31,2.62,7.03-.85,30.92-10.2,60.21-19.25,88.52-6.56,20.54-13.35,41.78-16.69,63.22-.73,4.7-4.36,7.85-9.02,7.85h0c-3.1,0-6.16-1.42-8.19-3.79-1.96-2.29-2.79-5.23-2.31-8.26,3.41-21.86,10.27-43.16,16.9-63.76,4.61-14.33,9.33-28.98,12.85-43.81-4.95,7.57-9.91,15.42-14.93,23.65-5.93,9.71-11.86,19.8-18.14,30.83-2.69,4.72-5.48,9.69-8.29,14.76-.61,1.1-1.22,2.34-1.86,3.65-1.66,3.39-3.53,7.23-6.33,10.21-1.79,1.91-4.45,3.01-7.29,3.01-3.98,0-7.36-2.1-8.8-5.47-1.8-4.19-1.07-8.43-.49-11.84.13-.78.27-1.55.36-2.31.66-5.2,1.31-10.4,1.93-15.61,1.34-11.23,2.34-20.53,3.13-29.26.76-8.41,1.33-16.2,1.72-23.64-1.2,2.28-2.41,4.55-3.63,6.8-7.11,13.16-14.16,26.58-20.94,39.9-13.57,26.65-26.8,54.29-39.32,82.16-1.56,3.48-4.65,5.55-8.27,5.55Z"/>
          <path d="M13.41,231.41c-3.44,0-6.79-1.89-8.76-4.92-1.92-2.97-2.19-6.53-.73-9.78,13.11-29.19,27-58.14,41.28-86.04,7.15-13.97,14.57-28.02,22.06-41.76,3.81-6.99,7.73-14.08,11.66-21.08.55-.98,1.16-2.25,1.8-3.6,2.59-5.43,5.81-12.18,11.9-14.51.99-.38,2.03-.57,3.11-.57,4.45,0,8.71,3.34,9.7,7.6.94,4.06.87,8.34.8,12.11-.02,1.05-.04,2.09-.03,3.11.02,4.79-.05,9.8-.21,14.91-.29,9.34-.86,19.06-1.76,29.72-.31,3.64-.65,7.36-1.03,11.24,3.45-5.87,6.84-11.52,10.23-17.06,12.92-21.08,25.51-39.85,38.5-57.39,1.99-2.68,5.21-4.28,8.62-4.28,2.76,0,5.28,1.03,7.09,2.89,1.77,1.82,2.7,4.31,2.62,7.03-.85,30.92-10.2,60.21-19.25,88.52-6.56,20.54-13.35,41.78-16.69,63.22-.73,4.7-4.36,7.85-9.02,7.85h0c-3.1,0-6.16-1.42-8.19-3.79-1.96-2.29-2.79-5.23-2.31-8.26,3.41-21.86,10.27-43.16,16.9-63.76,4.61-14.33,9.33-28.98,12.85-43.81-4.95,7.57-9.91,15.42-14.93,23.65-5.93,9.71-11.86,19.8-18.14,30.83-2.69,4.72-5.48,9.69-8.29,14.76-.61,1.1-1.22,2.34-1.86,3.65-1.66,3.39-3.53,7.23-6.33,10.21-1.79,1.91-4.45,3.01-7.29,3.01-3.98,0-7.36-2.1-8.8-5.47-1.8-4.19-1.07-8.43-.49-11.84.13-.78.27-1.55.36-2.31.66-5.2,1.31-10.4,1.93-15.61,1.34-11.23,2.34-20.53,3.13-29.26.76-8.41,1.33-16.2,1.72-23.64-1.2,2.28-2.41,4.55-3.63,6.8-7.11,13.16-14.16,26.58-20.94,39.9-13.57,26.65-26.8,54.29-39.32,82.16-1.56,3.48-4.65,5.55-8.27,5.55Z"/>
          <path d="M12.41,230.41c-3.44,0-6.79-1.89-8.76-4.92-1.92-2.97-2.19-6.53-.73-9.78,13.11-29.19,27-58.14,41.28-86.04,7.15-13.97,14.57-28.02,22.06-41.76,3.81-6.99,7.73-14.08,11.66-21.08.55-.98,1.16-2.25,1.8-3.6,2.59-5.43,5.81-12.18,11.9-14.51.99-.38,2.03-.57,3.11-.57,4.45,0,8.71,3.34,9.7,7.6.94,4.06.87,8.34.8,12.11-.02,1.05-.04,2.09-.03,3.11.02,4.79-.05,9.8-.21,14.91-.29,9.34-.86,19.06-1.76,29.72-.31,3.64-.65,7.36-1.03,11.24,3.45-5.87,6.84-11.52,10.23-17.06,12.92-21.08,25.51-39.85,38.5-57.39,1.99-2.68,5.21-4.28,8.62-4.28,2.76,0,5.28,1.03,7.09,2.89,1.77,1.82,2.7,4.31,2.62,7.03-.85,30.92-10.2,60.21-19.25,88.52-6.56,20.54-13.35,41.78-16.69,63.22-.73,4.7-4.36,7.85-9.02,7.85h0c-3.1,0-6.16-1.42-8.19-3.79-1.96-2.29-2.79-5.23-2.31-8.26,3.41-21.86,10.27-43.16,16.9-63.76,4.61-14.33,9.33-28.98,12.85-43.81-4.95,7.57-9.91,15.42-14.93,23.65-5.93,9.71-11.86,19.8-18.14,30.83-2.69,4.72-5.48,9.69-8.29,14.76-.61,1.1-1.22,2.34-1.86,3.65-1.66,3.39-3.53,7.23-6.33,10.21-1.79,1.91-4.45,3.01-7.29,3.01-3.98,0-7.36-2.1-8.8-5.47-1.8-4.19-1.07-8.43-.49-11.84.13-.78.27-1.55.36-2.31.66-5.2,1.31-10.4,1.93-15.61,1.34-11.23,2.34-20.53,3.13-29.26.76-8.41,1.33-16.2,1.72-23.64-1.2,2.28-2.41,4.55-3.63,6.8-7.11,13.16-14.16,26.58-20.94,39.9-13.57,26.65-26.8,54.29-39.32,82.16-1.56,3.48-4.65,5.55-8.27,5.55Z"/>
          <path d="M11.41,229.41c-3.44,0-6.79-1.89-8.76-4.92-1.92-2.97-2.19-6.53-.73-9.78,13.11-29.19,27-58.14,41.28-86.04,7.15-13.97,14.57-28.02,22.06-41.76,3.81-6.99,7.73-14.08,11.66-21.08.55-.98,1.16-2.25,1.8-3.6,2.59-5.43,5.81-12.18,11.9-14.51.99-.38,2.03-.57,3.11-.57,4.45,0,8.71,3.34,9.7,7.6.94,4.06.87,8.34.8,12.11-.02,1.05-.04,2.09-.03,3.11.02,4.79-.05,9.8-.21,14.91-.29,9.34-.86,19.06-1.76,29.72-.31,3.64-.65,7.36-1.03,11.24,3.45-5.87,6.84-11.52,10.23-17.06,12.92-21.08,25.51-39.85,38.5-57.39,1.99-2.68,5.21-4.28,8.62-4.28,2.76,0,5.28,1.03,7.09,2.89,1.77,1.82,2.7,4.31,2.62,7.03-.85,30.92-10.2,60.21-19.25,88.52-6.56,20.54-13.35,41.78-16.69,63.22-.73,4.7-4.36,7.85-9.02,7.85h0c-3.1,0-6.16-1.42-8.19-3.79-1.96-2.29-2.79-5.23-2.31-8.26,3.41-21.86,10.27-43.16,16.9-63.76,4.61-14.33,9.33-28.98,12.85-43.81-4.95,7.57-9.91,15.42-14.93,23.65-5.93,9.71-11.86,19.8-18.14,30.83-2.69,4.72-5.48,9.69-8.29,14.76-.61,1.1-1.22,2.34-1.86,3.65-1.66,3.39-3.53,7.23-6.33,10.21-1.79,1.91-4.45,3.01-7.29,3.01-3.98,0-7.36-2.1-8.8-5.47-1.8-4.19-1.07-8.43-.49-11.84.13-.78.27-1.55.36-2.31.66-5.2,1.31-10.4,1.93-15.61,1.34-11.23,2.34-20.53,3.13-29.26.76-8.41,1.33-16.2,1.72-23.64-1.2,2.28-2.41,4.55-3.63,6.8-7.11,13.16-14.16,26.58-20.94,39.9-13.57,26.65-26.8,54.29-39.32,82.16-1.56,3.48-4.65,5.55-8.27,5.55Z"/>
          <path d="M10.41,228.41c-3.44,0-6.79-1.89-8.76-4.92-1.92-2.97-2.19-6.53-.73-9.78,13.11-29.19,27-58.14,41.28-86.04,7.15-13.97,14.57-28.02,22.06-41.76,3.81-6.99,7.73-14.08,11.66-21.08.55-.98,1.16-2.25,1.8-3.6,2.59-5.43,5.81-12.18,11.9-14.51.99-.38,2.03-.57,3.11-.57,4.45,0,8.71,3.34,9.7,7.6.94,4.06.87,8.34.8,12.11-.02,1.05-.04,2.09-.03,3.11.02,4.79-.05,9.8-.21,14.91-.29,9.34-.86,19.06-1.76,29.72-.31,3.64-.65,7.36-1.03,11.24,3.45-5.87,6.84-11.52,10.23-17.06,12.92-21.08,25.51-39.85,38.5-57.39,1.99-2.68,5.21-4.28,8.62-4.28,2.76,0,5.28,1.03,7.09,2.89,1.77,1.82,2.7,4.31,2.62,7.03-.85,30.92-10.2,60.21-19.25,88.52-6.56,20.54-13.35,41.78-16.69,63.22-.73,4.7-4.36,7.85-9.02,7.85h0c-3.1,0-6.16-1.42-8.19-3.79-1.96-2.29-2.79-5.23-2.31-8.26,3.41-21.86,10.27-43.16,16.9-63.76,4.61-14.33,9.33-28.98,12.85-43.81-4.95,7.57-9.91,15.42-14.93,23.65-5.93,9.71-11.86,19.8-18.14,30.83-2.69,4.72-5.48,9.69-8.29,14.76-.61,1.1-1.22,2.34-1.86,3.65-1.66,3.39-3.53,7.23-6.33,10.21-1.79,1.91-4.45,3.01-7.29,3.01-3.98,0-7.36-2.1-8.8-5.47-1.8-4.19-1.07-8.43-.49-11.84.13-.78.27-1.55.36-2.31.66-5.2,1.31-10.4,1.93-15.61,1.34-11.23,2.34-20.53,3.13-29.26.76-8.41,1.33-16.2,1.72-23.64-1.2,2.28-2.41,4.55-3.63,6.8-7.11,13.16-14.16,26.58-20.94,39.9-13.57,26.65-26.8,54.29-39.32,82.16-1.56,3.48-4.65,5.55-8.27,5.55Z"/>
        </g>
        <path class="cls-3" d="M152.96,53.36c-13.63,18.41-26.29,37.5-38.25,57.03-5.93,9.68-11.69,19.45-17.33,29.3-1.61,2.81-3.19,5.65-4.79,8.47.18-1.53.38-3.06.56-4.59,1.18-10.11,2.26-20.24,3.11-30.39.82-9.8,1.44-19.62,1.74-29.46.15-4.91.23-9.82.21-14.73-.02-4.59.41-9.62-.64-14.11-.57-2.45-3.7-4.43-6.15-3.49-5.5,2.11-8.41,11.05-11.13,15.89-3.92,6.98-7.8,13.99-11.63,21.03-7.51,13.79-14.84,27.67-22,41.65-14.46,28.24-28.17,56.86-41.17,85.81-2.61,5.82,6,10.91,8.63,5.05,12.47-27.77,25.6-55.25,39.42-82.38,6.83-13.42,13.83-26.76,20.99-40,4.55-8.41,8.93-17.11,13.66-25.56,0,.02,0,.03,0,.05-.03,5.24-.16,10.48-.38,15.72-.4,9.83-1.1,19.65-1.99,29.45-.89,9.82-1.98,19.61-3.15,29.4-.62,5.22-1.27,10.43-1.93,15.64-.48,3.79-1.8,7.93-.24,11.55,1.27,2.96,5.86,3.14,7.85,1.01,3.24-3.46,5.17-8.74,7.46-12.87,2.75-4.95,5.52-9.89,8.31-14.81,5.92-10.41,11.98-20.74,18.22-30.97,9.07-14.86,18.54-29.48,28.52-43.75-5.77,44.76-27.17,86.37-34.13,131.03-.98,6.3,8.65,9.01,9.64,2.66,8.01-51.34,34.45-98.55,35.89-151.11.15-5.4-6.59-6.21-9.32-2.52Z"/>
        <path class="cls-1" d="M152.96,53.36c-13.63,18.41-26.29,37.5-38.25,57.03-5.93,9.68-11.69,19.45-17.33,29.3-1.61,2.81-3.19,5.65-4.79,8.47.18-1.53.38-3.06.56-4.59,1.18-10.11,2.26-20.24,3.11-30.39.82-9.8,1.44-19.62,1.74-29.46.15-4.91.23-9.82.21-14.73-.02-4.59.41-9.62-.64-14.11-.57-2.45-3.7-4.43-6.15-3.49-5.5,2.11-8.41,11.05-11.13,15.89-3.92,6.98-7.8,13.99-11.63,21.03-7.51,13.79-14.84,27.67-22,41.65-14.46,28.24-28.17,56.86-41.17,85.81-2.61,5.82,6,10.91,8.63,5.05,12.47-27.77,25.6-55.25,39.42-82.38,6.83-13.42,13.83-26.76,20.99-40,4.55-8.41,8.93-17.11,13.66-25.56,0,.02,0,.03,0,.05-.03,5.24-.16,10.48-.38,15.72-.4,9.83-1.1,19.65-1.99,29.45-.89,9.82-1.98,19.61-3.15,29.4-.62,5.22-1.27,10.43-1.93,15.64-.48,3.79-1.8,7.93-.24,11.55,1.27,2.96,5.86,3.14,7.85,1.01,3.24-3.46,5.17-8.74,7.46-12.87,2.75-4.95,5.52-9.89,8.31-14.81,5.92-10.41,11.98-20.74,18.22-30.97,9.07-14.86,18.54-29.48,28.52-43.75-5.77,44.76-27.17,86.37-34.13,131.03-.98,6.3,8.65,9.01,9.64,2.66,8.01-51.34,34.45-98.55,35.89-151.11.15-5.4-6.59-6.21-9.32-2.52Z"/>
      </g>
      <g>
        <g>
          <path d="M167.22,228.01c-3.38,0-6.52-1.55-8.4-4.14-1.75-2.42-2.19-5.53-1.2-8.54,12.77-38.88,23.9-78.93,33.09-119.11-.68-.42-1.34-.87-1.96-1.38-3.68-2.97-5.87-7.2-6.32-12.22-.57-6.41,1.79-13.53,6.18-18.6,4.23-4.89,10.61-7.93,16.64-7.93,2.67,0,5.21.57,7.54,1.69,8.51,4.1,11.54,14.07,7.72,25.41-1.7,5.58-4.93,10.02-9.22,12.75-9.46,42.14-21.08,84.23-34.53,125.17-1.38,4.19-5.12,6.9-9.54,6.9h0Z"/>
          <path d="M166.22,227.01c-3.38,0-6.52-1.55-8.4-4.14-1.75-2.42-2.19-5.53-1.2-8.54,12.77-38.88,23.9-78.93,33.09-119.11-.68-.42-1.34-.87-1.96-1.38-3.68-2.97-5.87-7.2-6.32-12.22-.57-6.41,1.79-13.53,6.18-18.6,4.23-4.89,10.61-7.93,16.64-7.93,2.67,0,5.21.57,7.54,1.69,8.51,4.1,11.54,14.07,7.72,25.41-1.7,5.58-4.93,10.02-9.22,12.75-9.46,42.14-21.08,84.23-34.53,125.17-1.38,4.19-5.12,6.9-9.54,6.9h0Z"/>
          <path d="M165.22,226.01c-3.38,0-6.52-1.55-8.4-4.14-1.75-2.42-2.19-5.53-1.2-8.54,12.77-38.88,23.9-78.93,33.09-119.11-.68-.42-1.34-.87-1.96-1.38-3.68-2.97-5.87-7.2-6.32-12.22-.57-6.41,1.79-13.53,6.18-18.6,4.23-4.89,10.61-7.93,16.64-7.93,2.67,0,5.21.57,7.54,1.69,8.51,4.1,11.54,14.07,7.72,25.41-1.7,5.58-4.93,10.02-9.22,12.75-9.46,42.14-21.08,84.23-34.53,125.17-1.38,4.19-5.12,6.9-9.54,6.9h0Z"/>
          <path d="M164.22,225.01c-3.38,0-6.52-1.55-8.4-4.14-1.75-2.42-2.19-5.53-1.2-8.54,12.77-38.88,23.9-78.93,33.09-119.11-.68-.42-1.34-.87-1.96-1.38-3.68-2.97-5.87-7.2-6.32-12.22-.57-6.41,1.79-13.53,6.18-18.6,4.23-4.89,10.61-7.93,16.64-7.93,2.67,0,5.21.57,7.54,1.69,8.51,4.1,11.54,14.07,7.72,25.41-1.7,5.58-4.93,10.02-9.22,12.75-9.46,42.14-21.08,84.23-34.53,125.17-1.38,4.19-5.12,6.9-9.54,6.9h0Z"/>
          <path d="M163.22,224.01c-3.38,0-6.52-1.55-8.4-4.14-1.75-2.42-2.19-5.53-1.2-8.54,12.77-38.88,23.9-78.93,33.09-119.11-.68-.42-1.34-.87-1.96-1.38-3.68-2.97-5.87-7.2-6.32-12.22-.57-6.41,1.79-13.53,6.18-18.6,4.23-4.89,10.61-7.93,16.64-7.93,2.67,0,5.21.57,7.54,1.69,8.51,4.1,11.54,14.07,7.72,25.41-1.7,5.58-4.93,10.02-9.22,12.75-9.46,42.14-21.08,84.23-34.53,125.17-1.38,4.19-5.12,6.9-9.54,6.9h0Z"/>
          <path d="M162.22,223.01c-3.38,0-6.52-1.55-8.4-4.14-1.75-2.42-2.19-5.53-1.2-8.54,12.77-38.88,23.9-78.93,33.09-119.11-.68-.42-1.34-.87-1.96-1.38-3.68-2.97-5.87-7.2-6.32-12.22-.57-6.41,1.79-13.53,6.18-18.6,4.23-4.89,10.61-7.93,16.64-7.93,2.67,0,5.21.57,7.54,1.69,8.51,4.1,11.54,14.07,7.72,25.41-1.7,5.58-4.93,10.02-9.22,12.75-9.46,42.14-21.08,84.23-34.53,125.17-1.38,4.19-5.12,6.9-9.54,6.9h0Z"/>
          <path d="M161.22,222.01c-3.38,0-6.52-1.55-8.4-4.14-1.75-2.42-2.19-5.53-1.2-8.54,12.77-38.88,23.9-78.93,33.09-119.11-.68-.42-1.34-.87-1.96-1.38-3.68-2.97-5.87-7.2-6.32-12.22-.57-6.41,1.79-13.53,6.18-18.6,4.23-4.89,10.61-7.93,16.64-7.93,2.67,0,5.21.57,7.54,1.69,8.51,4.1,11.54,14.07,7.72,25.41-1.7,5.58-4.93,10.02-9.22,12.75-9.46,42.14-21.08,84.23-34.53,125.17-1.38,4.19-5.12,6.9-9.54,6.9h0Z"/>
          <path d="M160.22,221.01c-3.38,0-6.52-1.55-8.4-4.14-1.75-2.42-2.19-5.53-1.2-8.54,12.77-38.88,23.9-78.93,33.09-119.11-.68-.42-1.34-.87-1.96-1.38-3.68-2.97-5.87-7.2-6.32-12.22-.57-6.41,1.79-13.53,6.18-18.6,4.23-4.89,10.61-7.93,16.64-7.93,2.67,0,5.21.57,7.54,1.69,8.51,4.1,11.54,14.07,7.72,25.41-1.7,5.58-4.93,10.02-9.22,12.75-9.46,42.14-21.08,84.23-34.53,125.17-1.38,4.19-5.12,6.9-9.54,6.9h0Z"/>
          <path d="M159.22,220.01c-3.38,0-6.52-1.55-8.4-4.14-1.75-2.42-2.19-5.53-1.2-8.54,12.77-38.88,23.9-78.93,33.09-119.11-.68-.42-1.34-.87-1.96-1.38-3.68-2.97-5.87-7.2-6.32-12.22-.57-6.41,1.79-13.53,6.18-18.6,4.23-4.89,10.61-7.93,16.64-7.93,2.67,0,5.21.57,7.54,1.69,8.51,4.1,11.54,14.07,7.72,25.41-1.7,5.58-4.93,10.02-9.22,12.75-9.46,42.14-21.08,84.23-34.53,125.17-1.38,4.19-5.12,6.9-9.54,6.9h0Z"/>
          <path d="M158.22,219.01c-3.38,0-6.52-1.55-8.4-4.14-1.75-2.42-2.19-5.53-1.2-8.54,12.77-38.88,23.9-78.93,33.09-119.11-.68-.42-1.34-.87-1.96-1.38-3.68-2.97-5.87-7.2-6.32-12.22-.57-6.41,1.79-13.53,6.18-18.6,4.23-4.89,10.61-7.93,16.64-7.93,2.67,0,5.21.57,7.54,1.69,8.51,4.1,11.54,14.07,7.72,25.41-1.7,5.58-4.93,10.02-9.22,12.75-9.46,42.14-21.08,84.23-34.53,125.17-1.38,4.19-5.12,6.9-9.54,6.9h0Z"/>
          <path d="M157.22,218.01c-3.38,0-6.52-1.55-8.4-4.14-1.75-2.42-2.19-5.53-1.2-8.54,12.77-38.88,23.9-78.93,33.09-119.11-.68-.42-1.34-.87-1.96-1.38-3.68-2.97-5.87-7.2-6.32-12.22-.57-6.41,1.79-13.53,6.18-18.6,4.23-4.89,10.61-7.93,16.64-7.93,2.67,0,5.21.57,7.54,1.69,8.51,4.1,11.54,14.07,7.72,25.41-1.7,5.58-4.93,10.02-9.22,12.75-9.46,42.14-21.08,84.23-34.53,125.17-1.38,4.19-5.12,6.9-9.54,6.9h0Z"/>
        </g>
        <path class="cls-3" d="M205.75,71.67c2.33-6.87,2.34-15.78-5.12-19.38-6.27-3.02-13.93.03-18.23,5.01-5.42,6.26-7.71,17.83-.5,23.66,1.37,1.11,2.94,1.9,4.59,2.4-9.4,41.7-20.78,82.92-34.12,123.53-2.01,6.13,7.64,8.75,9.64,2.66,13.7-41.71,25.34-84.06,34.89-126.91,4.53-2.06,7.41-6.19,8.85-10.98ZM191.15,62.67c.9-.71,1.87-1.18,3.12-1.47.68-.16,1.84-.02,1.91,0,.7.3.42.15.52.3.43.71.39.33.53,1.41.19,1.51-.47,4.18-1.12,6.1-.69,2.3-1.93,4.38-4.45,4.91-1.51.31-3.49-.06-4.13-1.62-1.29-3.16,1.29-7.78,3.62-9.63Z"/>
        <path class="cls-1" d="M205.75,71.67c2.33-6.87,2.34-15.78-5.12-19.38-6.27-3.02-13.93.03-18.23,5.01-5.42,6.26-7.71,17.83-.5,23.66,1.37,1.11,2.94,1.9,4.59,2.4-9.4,41.7-20.78,82.92-34.12,123.53-2.01,6.13,7.64,8.75,9.64,2.66,13.7-41.71,25.34-84.06,34.89-126.91,4.53-2.06,7.41-6.19,8.85-10.98ZM191.15,62.67c.9-.71,1.87-1.18,3.12-1.47.68-.16,1.84-.02,1.91,0,.7.3.42.15.52.3.43.71.39.33.53,1.41.19,1.51-.47,4.18-1.12,6.1-.69,2.3-1.93,4.38-4.45,4.91-1.51.31-3.49-.06-4.13-1.62-1.29-3.16,1.29-7.78,3.62-9.63Z"/>
      </g>
      <g>
        <g>
          <path d="M209.37,221.73c-3.27,0-6.35-1.48-8.25-3.95-1.81-2.36-2.35-5.33-1.54-8.35,5.73-21.28,11.45-42.95,16.97-63.91,8.34-31.62,16.95-64.31,25.83-96.38,1.21-4.37,5.4-7.55,9.96-7.55,2.65,0,5.09,1.09,6.87,3.08,3.37,3.76,3.88,9.01,4.29,13.22.1,1.04.2,2.02.33,2.85.85,5.55,1.7,11.1,2.53,16.66,1.33,8.85,2.64,17.71,3.95,26.56l1.15,7.77c1.87,12.64,3.57,23.98,5.25,34.92,8.74-23.09,15.56-47.14,22.19-70.54,5.54-19.53,11.26-39.72,18.06-59.23,1.46-4.18,5.29-6.88,9.77-6.88,3.4,0,6.52,1.53,8.35,4.1,1.7,2.39,2.08,5.46,1.05,8.42-6.78,19.47-12.55,39.75-18.13,59.36-9.97,35.04-20.27,71.27-36.84,104.81-1.68,3.39-4.8,5.42-8.35,5.42h0c-5.02,0-9.61-3.97-10.45-9.04-3.66-21.99-6.99-44.07-10.05-64.65,0,0-2.49-16.82-2.83-19.08-4.59,17.16-9.12,34.34-13.55,51.13-5.52,20.95-11.24,42.62-16.97,63.91-1.2,4.46-4.97,7.35-9.59,7.35Z"/>
          <path d="M208.37,220.73c-3.27,0-6.35-1.48-8.25-3.95-1.81-2.36-2.35-5.33-1.54-8.35,5.73-21.28,11.45-42.95,16.97-63.91,8.34-31.62,16.95-64.31,25.83-96.38,1.21-4.37,5.4-7.55,9.96-7.55,2.65,0,5.09,1.09,6.87,3.08,3.37,3.76,3.88,9.01,4.29,13.22.1,1.04.2,2.02.33,2.85.85,5.55,1.7,11.1,2.53,16.66,1.33,8.85,2.64,17.71,3.95,26.56l1.15,7.77c1.87,12.64,3.57,23.98,5.25,34.92,8.74-23.09,15.56-47.14,22.19-70.54,5.54-19.53,11.26-39.72,18.06-59.23,1.46-4.18,5.29-6.88,9.77-6.88,3.4,0,6.52,1.53,8.35,4.1,1.7,2.39,2.08,5.46,1.05,8.42-6.78,19.47-12.55,39.75-18.13,59.36-9.97,35.04-20.27,71.27-36.84,104.81-1.68,3.39-4.8,5.42-8.35,5.42h0c-5.02,0-9.61-3.97-10.45-9.04-3.66-21.99-6.99-44.07-10.05-64.65,0,0-2.49-16.82-2.83-19.08-4.59,17.16-9.12,34.34-13.55,51.13-5.52,20.95-11.24,42.62-16.97,63.91-1.2,4.46-4.97,7.35-9.59,7.35Z"/>
          <path d="M207.37,219.73c-3.27,0-6.35-1.48-8.25-3.95-1.81-2.36-2.35-5.33-1.54-8.35,5.73-21.28,11.45-42.95,16.97-63.91,8.34-31.62,16.95-64.31,25.83-96.38,1.21-4.37,5.4-7.55,9.96-7.55,2.65,0,5.09,1.09,6.87,3.08,3.37,3.76,3.88,9.01,4.29,13.22.1,1.04.2,2.02.33,2.85.85,5.55,1.7,11.1,2.53,16.66,1.33,8.85,2.64,17.71,3.95,26.56l1.15,7.77c1.87,12.64,3.57,23.98,5.25,34.92,8.74-23.09,15.56-47.14,22.19-70.54,5.54-19.53,11.26-39.72,18.06-59.23,1.46-4.18,5.29-6.88,9.77-6.88,3.4,0,6.52,1.53,8.35,4.1,1.7,2.39,2.08,5.46,1.05,8.42-6.78,19.47-12.55,39.75-18.13,59.36-9.97,35.04-20.27,71.27-36.84,104.81-1.68,3.39-4.8,5.42-8.35,5.42h0c-5.02,0-9.61-3.97-10.45-9.04-3.66-21.99-6.99-44.07-10.05-64.65,0,0-2.49-16.82-2.83-19.08-4.59,17.16-9.12,34.34-13.55,51.13-5.52,20.95-11.24,42.62-16.97,63.91-1.2,4.46-4.97,7.35-9.59,7.35Z"/>
          <path d="M206.37,218.73c-3.27,0-6.35-1.48-8.25-3.95-1.81-2.36-2.35-5.33-1.54-8.35,5.73-21.28,11.45-42.95,16.97-63.91,8.34-31.62,16.95-64.31,25.83-96.38,1.21-4.37,5.4-7.55,9.96-7.55,2.65,0,5.09,1.09,6.87,3.08,3.37,3.76,3.88,9.01,4.29,13.22.1,1.04.2,2.02.33,2.85.85,5.55,1.7,11.1,2.53,16.66,1.33,8.85,2.64,17.71,3.95,26.56l1.15,7.77c1.87,12.64,3.57,23.98,5.25,34.92,8.74-23.09,15.56-47.14,22.19-70.54,5.54-19.53,11.26-39.72,18.06-59.23,1.46-4.18,5.29-6.88,9.77-6.88,3.4,0,6.52,1.53,8.35,4.1,1.7,2.39,2.08,5.46,1.05,8.42-6.78,19.47-12.55,39.75-18.13,59.36-9.97,35.04-20.27,71.27-36.84,104.81-1.68,3.39-4.8,5.42-8.35,5.42h0c-5.02,0-9.61-3.97-10.45-9.04-3.66-21.99-6.99-44.07-10.05-64.65,0,0-2.49-16.82-2.83-19.08-4.59,17.16-9.12,34.34-13.55,51.13-5.52,20.95-11.24,42.62-16.97,63.91-1.2,4.46-4.97,7.35-9.59,7.35Z"/>
          <path d="M205.37,217.73c-3.27,0-6.35-1.48-8.25-3.95-1.81-2.36-2.35-5.33-1.54-8.35,5.73-21.28,11.45-42.95,16.97-63.91,8.34-31.62,16.95-64.31,25.83-96.38,1.21-4.37,5.4-7.55,9.96-7.55,2.65,0,5.09,1.09,6.87,3.08,3.37,3.76,3.88,9.01,4.29,13.22.1,1.04.2,2.02.33,2.85.85,5.55,1.7,11.1,2.53,16.66,1.33,8.85,2.64,17.71,3.95,26.56l1.15,7.77c1.87,12.64,3.57,23.98,5.25,34.92,8.74-23.09,15.56-47.14,22.19-70.54,5.54-19.53,11.26-39.72,18.06-59.23,1.46-4.18,5.29-6.88,9.77-6.88,3.4,0,6.52,1.53,8.35,4.1,1.7,2.39,2.08,5.46,1.05,8.42-6.78,19.47-12.55,39.75-18.13,59.36-9.97,35.04-20.27,71.27-36.84,104.81-1.68,3.39-4.8,5.42-8.35,5.42h0c-5.02,0-9.61-3.97-10.45-9.04-3.66-21.99-6.99-44.07-10.05-64.65,0,0-2.49-16.82-2.83-19.08-4.59,17.16-9.12,34.34-13.55,51.13-5.52,20.95-11.24,42.62-16.97,63.91-1.2,4.46-4.97,7.35-9.59,7.35Z"/>
          <path d="M204.37,216.73c-3.27,0-6.35-1.48-8.25-3.95-1.81-2.36-2.35-5.33-1.54-8.35,5.73-21.28,11.45-42.95,16.97-63.91,8.34-31.62,16.95-64.31,25.83-96.38,1.21-4.37,5.4-7.55,9.96-7.55,2.65,0,5.09,1.09,6.87,3.08,3.37,3.76,3.88,9.01,4.29,13.22.1,1.04.2,2.02.33,2.85.85,5.55,1.7,11.1,2.53,16.66,1.33,8.85,2.64,17.71,3.95,26.56l1.15,7.77c1.87,12.64,3.57,23.98,5.25,34.92,8.74-23.09,15.56-47.14,22.19-70.54,5.54-19.53,11.26-39.72,18.06-59.23,1.46-4.18,5.29-6.88,9.77-6.88,3.4,0,6.52,1.53,8.35,4.1,1.7,2.39,2.08,5.46,1.05,8.42-6.78,19.47-12.55,39.75-18.13,59.36-9.97,35.04-20.27,71.27-36.84,104.81-1.68,3.39-4.8,5.42-8.35,5.42h0c-5.02,0-9.61-3.97-10.45-9.04-3.66-21.99-6.99-44.07-10.05-64.65,0,0-2.49-16.82-2.83-19.08-4.59,17.16-9.12,34.34-13.55,51.13-5.52,20.95-11.24,42.62-16.97,63.91-1.2,4.46-4.97,7.35-9.59,7.35Z"/>
          <path d="M203.37,215.73c-3.27,0-6.35-1.48-8.25-3.95-1.81-2.36-2.35-5.33-1.54-8.35,5.73-21.28,11.45-42.95,16.97-63.91,8.34-31.62,16.95-64.31,25.83-96.38,1.21-4.37,5.4-7.55,9.96-7.55,2.65,0,5.09,1.09,6.87,3.08,3.37,3.76,3.88,9.01,4.29,13.22.1,1.04.2,2.02.33,2.85.85,5.55,1.7,11.1,2.53,16.66,1.33,8.85,2.64,17.71,3.95,26.56l1.15,7.77c1.87,12.64,3.57,23.98,5.25,34.92,8.74-23.09,15.56-47.14,22.19-70.54,5.54-19.53,11.26-39.72,18.06-59.23,1.46-4.18,5.29-6.88,9.77-6.88,3.4,0,6.52,1.53,8.35,4.1,1.7,2.39,2.08,5.46,1.05,8.42-6.78,19.47-12.55,39.75-18.13,59.36-9.97,35.04-20.27,71.27-36.84,104.81-1.68,3.39-4.8,5.42-8.35,5.42h0c-5.02,0-9.61-3.97-10.45-9.04-3.66-21.99-6.99-44.07-10.05-64.65,0,0-2.49-16.82-2.83-19.08-4.59,17.16-9.12,34.34-13.55,51.13-5.52,20.95-11.24,42.62-16.97,63.91-1.2,4.46-4.97,7.35-9.59,7.35Z"/>
          <path d="M202.37,214.73c-3.27,0-6.35-1.48-8.25-3.95-1.81-2.36-2.35-5.33-1.54-8.35,5.73-21.28,11.45-42.95,16.97-63.91,8.34-31.62,16.95-64.31,25.83-96.38,1.21-4.37,5.4-7.55,9.96-7.55,2.65,0,5.09,1.09,6.87,3.08,3.37,3.76,3.88,9.01,4.29,13.22.1,1.04.2,2.02.33,2.85.85,5.55,1.7,11.1,2.53,16.66,1.33,8.85,2.64,17.71,3.95,26.56l1.15,7.77c1.87,12.64,3.57,23.98,5.25,34.92,8.74-23.09,15.56-47.14,22.19-70.54,5.54-19.53,11.26-39.72,18.06-59.23,1.46-4.18,5.29-6.88,9.77-6.88,3.4,0,6.52,1.53,8.35,4.1,1.7,2.39,2.08,5.46,1.05,8.42-6.78,19.47-12.55,39.75-18.13,59.36-9.97,35.04-20.27,71.27-36.84,104.81-1.68,3.39-4.8,5.42-8.35,5.42h0c-5.02,0-9.61-3.97-10.45-9.04-3.66-21.99-6.99-44.07-10.05-64.65,0,0-2.49-16.82-2.83-19.08-4.59,17.16-9.12,34.34-13.55,51.13-5.52,20.95-11.24,42.62-16.97,63.91-1.2,4.46-4.97,7.35-9.59,7.35Z"/>
          <path d="M201.37,213.73c-3.27,0-6.35-1.48-8.25-3.95-1.81-2.36-2.35-5.33-1.54-8.35,5.73-21.28,11.45-42.95,16.97-63.91,8.34-31.62,16.95-64.31,25.83-96.38,1.21-4.37,5.4-7.55,9.96-7.55,2.65,0,5.09,1.09,6.87,3.08,3.37,3.76,3.88,9.01,4.29,13.22.1,1.04.2,2.02.33,2.85.85,5.55,1.7,11.1,2.53,16.66,1.33,8.85,2.64,17.71,3.95,26.56l1.15,7.77c1.87,12.64,3.57,23.98,5.25,34.92,8.74-23.09,15.56-47.14,22.19-70.54,5.54-19.53,11.26-39.72,18.06-59.23,1.46-4.18,5.29-6.88,9.77-6.88,3.4,0,6.52,1.53,8.35,4.1,1.7,2.39,2.08,5.46,1.05,8.42-6.78,19.47-12.55,39.75-18.13,59.36-9.97,35.04-20.27,71.27-36.84,104.81-1.68,3.39-4.8,5.42-8.35,5.42h0c-5.02,0-9.61-3.97-10.45-9.04-3.66-21.99-6.99-44.07-10.05-64.65,0,0-2.49-16.82-2.83-19.08-4.59,17.16-9.12,34.34-13.55,51.13-5.52,20.95-11.24,42.62-16.97,63.91-1.2,4.46-4.97,7.35-9.59,7.35Z"/>
          <path d="M200.37,212.73c-3.27,0-6.35-1.48-8.25-3.95-1.81-2.36-2.35-5.33-1.54-8.35,5.73-21.28,11.45-42.95,16.97-63.91,8.34-31.62,16.95-64.31,25.83-96.38,1.21-4.37,5.4-7.55,9.96-7.55,2.65,0,5.09,1.09,6.87,3.08,3.37,3.76,3.88,9.01,4.29,13.22.1,1.04.2,2.02.33,2.85.85,5.55,1.7,11.1,2.53,16.66,1.33,8.85,2.64,17.71,3.95,26.56l1.15,7.77c1.87,12.64,3.57,23.98,5.25,34.92,8.74-23.09,15.56-47.14,22.19-70.54,5.54-19.53,11.26-39.72,18.06-59.23,1.46-4.18,5.29-6.88,9.77-6.88,3.4,0,6.52,1.53,8.35,4.1,1.7,2.39,2.08,5.46,1.05,8.42-6.78,19.47-12.55,39.75-18.13,59.36-9.97,35.04-20.27,71.27-36.84,104.81-1.68,3.39-4.8,5.42-8.35,5.42h0c-5.02,0-9.61-3.97-10.45-9.04-3.66-21.99-6.99-44.07-10.05-64.65,0,0-2.49-16.82-2.83-19.08-4.59,17.16-9.12,34.34-13.55,51.13-5.52,20.95-11.24,42.62-16.97,63.91-1.2,4.46-4.97,7.35-9.59,7.35Z"/>
          <path d="M199.37,211.73c-3.27,0-6.35-1.48-8.25-3.95-1.81-2.36-2.35-5.33-1.54-8.35,5.73-21.28,11.45-42.95,16.97-63.91,8.34-31.62,16.95-64.31,25.83-96.38,1.21-4.37,5.4-7.55,9.96-7.55,2.65,0,5.09,1.09,6.87,3.08,3.37,3.76,3.88,9.01,4.29,13.22.1,1.04.2,2.02.33,2.85.85,5.55,1.7,11.1,2.53,16.66,1.33,8.85,2.64,17.71,3.95,26.56l1.15,7.77c1.87,12.64,3.57,23.98,5.25,34.92,8.74-23.09,15.56-47.14,22.19-70.54,5.54-19.53,11.26-39.72,18.06-59.23,1.46-4.18,5.29-6.88,9.77-6.88,3.4,0,6.52,1.53,8.35,4.1,1.7,2.39,2.08,5.46,1.05,8.42-6.78,19.47-12.55,39.75-18.13,59.36-9.97,35.04-20.27,71.27-36.84,104.81-1.68,3.39-4.8,5.42-8.35,5.42h0c-5.02,0-9.61-3.97-10.45-9.04-3.66-21.99-6.99-44.07-10.05-64.65,0,0-2.49-16.82-2.83-19.08-4.59,17.16-9.12,34.34-13.55,51.13-5.52,20.95-11.24,42.62-16.97,63.91-1.2,4.46-4.97,7.35-9.59,7.35Z"/>
        </g>
        <path class="cls-3" d="M311.69,8.53c-16.89,48.48-26.65,99.58-47.12,146.75-2.8-17.58-5.44-35.19-8.05-52.8-1.7-11.44-3.38-22.88-5.1-34.32-.83-5.55-1.68-11.09-2.53-16.64-.64-4.19-.45-10.19-3.4-13.5-2.63-2.94-7.36-.88-8.28,2.47-14.75,53.29-28.41,106.87-42.79,160.25-1.68,6.23,8.05,8.56,9.72,2.35,12.4-46.02,24.26-92.18,36.75-138.18.52,3.47,1.05,6.95,1.57,10.42,1.61,10.79,3.2,21.58,4.8,32.37,3.2,21.54,6.46,43.08,10.04,64.56.73,4.42,6.94,7.18,9.39,2.23,25.62-51.85,35.82-109.3,54.73-163.6,2.12-6.08-7.62-8.38-9.72-2.35Z"/>
        <path class="cls-1" d="M311.69,8.53c-16.89,48.48-26.65,99.58-47.12,146.75-2.8-17.58-5.44-35.19-8.05-52.8-1.7-11.44-3.38-22.88-5.1-34.32-.83-5.55-1.68-11.09-2.53-16.64-.64-4.19-.45-10.19-3.4-13.5-2.63-2.94-7.36-.88-8.28,2.47-14.75,53.29-28.41,106.87-42.79,160.25-1.68,6.23,8.05,8.56,9.72,2.35,12.4-46.02,24.26-92.18,36.75-138.18.52,3.47,1.05,6.95,1.57,10.42,1.61,10.79,3.2,21.58,4.8,32.37,3.2,21.54,6.46,43.08,10.04,64.56.73,4.42,6.94,7.18,9.39,2.23,25.62-51.85,35.82-109.3,54.73-163.6,2.12-6.08-7.62-8.38-9.72-2.35Z"/>
      </g>
      <g>
        <g>
          <path d="M346.31,193.46c-8.87,0-17.27-3.66-23.67-10.31-10.91-11.35-15.4-29.36-11.7-47.02.31-1.66.61-3.34.92-5.04,5.48-30.06,11.69-64.13,39.62-83.32,6.93-4.76,14.92-8.05,22.51-9.27.97-.16,1.96-.23,2.93-.23,6.9,0,12.42,3.83,15.97,6.71,7.2,5.83,12.3,14.78,14.35,25.19,3.6,18.27.53,38.99-9.65,65.22-4.31,11.11-9.02,20.89-14.38,29.89-5.29,8.87-11.2,17.99-20.13,23.42-5.13,3.12-10.93,4.76-16.77,4.76h0ZM376.22,58.28c-1.89,0-5.66.97-12.88,5.6-4.06,2.61-7.84,6.14-11.23,10.48-12.85,16.48-16.64,37.82-20.3,58.46-.47,2.63-.93,5.24-1.41,7.84,0,.04-.02.08-.02.12-3.65,17.34,4.95,29.42,11.9,32.13,1.32.51,2.57.76,3.84.76,6.08,0,11.6-6.09,15.16-11.21,9.06-13.03,16.36-28.45,21.7-45.83,4.25-13.85,8.5-31.66,3.6-46.61-1.4-4.26-4.58-9.54-9.32-11.59-.17-.07-.48-.16-1.02-.16Z"/>
          <path d="M345.31,192.46c-8.87,0-17.27-3.66-23.67-10.31-10.91-11.35-15.4-29.36-11.7-47.02.31-1.66.61-3.34.92-5.04,5.48-30.06,11.69-64.13,39.62-83.32,6.93-4.76,14.92-8.05,22.51-9.27.97-.16,1.96-.23,2.93-.23,6.9,0,12.42,3.83,15.97,6.71,7.2,5.83,12.3,14.78,14.35,25.19,3.6,18.27.53,38.99-9.65,65.22-4.31,11.11-9.02,20.89-14.38,29.89-5.29,8.87-11.2,17.99-20.13,23.42-5.13,3.12-10.93,4.76-16.77,4.76h0ZM375.22,57.28c-1.89,0-5.66.97-12.88,5.6-4.06,2.61-7.84,6.14-11.23,10.48-12.85,16.48-16.64,37.82-20.3,58.46-.47,2.63-.93,5.24-1.41,7.84,0,.04-.02.08-.02.12-3.65,17.34,4.95,29.42,11.9,32.13,1.32.51,2.57.76,3.84.76,6.08,0,11.6-6.09,15.16-11.21,9.06-13.03,16.36-28.45,21.7-45.83,4.25-13.85,8.5-31.66,3.6-46.61-1.4-4.26-4.58-9.54-9.32-11.59-.17-.07-.48-.16-1.02-.16Z"/>
          <path d="M344.31,191.46c-8.87,0-17.27-3.66-23.67-10.31-10.91-11.35-15.4-29.36-11.7-47.02.31-1.66.61-3.34.92-5.04,5.48-30.06,11.69-64.13,39.62-83.32,6.93-4.76,14.92-8.05,22.51-9.27.97-.16,1.96-.23,2.93-.23,6.9,0,12.42,3.83,15.97,6.71,7.2,5.83,12.3,14.78,14.35,25.19,3.6,18.27.53,38.99-9.65,65.22-4.31,11.11-9.02,20.89-14.38,29.89-5.29,8.87-11.2,17.99-20.13,23.42-5.13,3.12-10.93,4.76-16.77,4.76h0ZM374.22,56.28c-1.89,0-5.66.97-12.88,5.6-4.06,2.61-7.84,6.14-11.23,10.48-12.85,16.48-16.64,37.82-20.3,58.46-.47,2.63-.93,5.24-1.41,7.84,0,.04-.02.08-.02.12-3.65,17.34,4.95,29.42,11.9,32.13,1.32.51,2.57.76,3.84.76,6.08,0,11.6-6.09,15.16-11.21,9.06-13.03,16.36-28.45,21.7-45.83,4.25-13.85,8.5-31.66,3.6-46.61-1.4-4.26-4.58-9.54-9.32-11.59-.17-.07-.48-.16-1.02-.16Z"/>
          <path d="M343.31,190.46c-8.87,0-17.27-3.66-23.67-10.31-10.91-11.35-15.4-29.36-11.7-47.02.31-1.66.61-3.34.92-5.04,5.48-30.06,11.69-64.13,39.62-83.32,6.93-4.76,14.92-8.05,22.51-9.27.97-.16,1.96-.23,2.93-.23,6.9,0,12.42,3.83,15.97,6.71,7.2,5.83,12.3,14.78,14.35,25.19,3.6,18.27.53,38.99-9.65,65.22-4.31,11.11-9.02,20.89-14.38,29.89-5.29,8.87-11.2,17.99-20.13,23.42-5.13,3.12-10.93,4.76-16.77,4.76h0ZM373.22,55.28c-1.89,0-5.66.97-12.88,5.6-4.06,2.61-7.84,6.14-11.23,10.48-12.85,16.48-16.64,37.82-20.3,58.46-.47,2.63-.93,5.24-1.41,7.84,0,.04-.02.08-.02.12-3.65,17.34,4.95,29.42,11.9,32.13,1.32.51,2.57.76,3.84.76,6.08,0,11.6-6.09,15.16-11.21,9.06-13.03,16.36-28.45,21.7-45.83,4.25-13.85,8.5-31.66,3.6-46.61-1.4-4.26-4.58-9.54-9.32-11.59-.17-.07-.48-.16-1.02-.16Z"/>
          <path d="M342.31,189.46c-8.87,0-17.27-3.66-23.67-10.31-10.91-11.35-15.4-29.36-11.7-47.02.31-1.66.61-3.34.92-5.04,5.48-30.06,11.69-64.13,39.62-83.32,6.93-4.76,14.92-8.05,22.51-9.27.97-.16,1.96-.23,2.93-.23,6.9,0,12.42,3.83,15.97,6.71,7.2,5.83,12.3,14.78,14.35,25.19,3.6,18.27.53,38.99-9.65,65.22-4.31,11.11-9.02,20.89-14.38,29.89-5.29,8.87-11.2,17.99-20.13,23.42-5.13,3.12-10.93,4.76-16.77,4.76h0ZM372.22,54.28c-1.89,0-5.66.97-12.88,5.6-4.06,2.61-7.84,6.14-11.23,10.48-12.85,16.48-16.64,37.82-20.3,58.46-.47,2.63-.93,5.24-1.41,7.84,0,.04-.02.08-.02.12-3.65,17.34,4.95,29.42,11.9,32.13,1.32.51,2.57.76,3.84.76,6.08,0,11.6-6.09,15.16-11.21,9.06-13.03,16.36-28.45,21.7-45.83,4.25-13.85,8.5-31.66,3.6-46.61-1.4-4.26-4.58-9.54-9.32-11.59-.17-.07-.48-.16-1.02-.16Z"/>
          <path d="M341.31,188.46c-8.87,0-17.27-3.66-23.67-10.31-10.91-11.35-15.4-29.36-11.7-47.02.31-1.66.61-3.34.92-5.04,5.48-30.06,11.69-64.13,39.62-83.32,6.93-4.76,14.92-8.05,22.51-9.27.97-.16,1.96-.23,2.93-.23,6.9,0,12.42,3.83,15.97,6.71,7.2,5.83,12.3,14.78,14.35,25.19,3.6,18.27.53,38.99-9.65,65.22-4.31,11.11-9.02,20.89-14.38,29.89-5.29,8.87-11.2,17.99-20.13,23.42-5.13,3.12-10.93,4.76-16.77,4.76h0ZM371.22,53.28c-1.89,0-5.66.97-12.88,5.6-4.06,2.61-7.84,6.14-11.23,10.48-12.85,16.48-16.64,37.82-20.3,58.46-.47,2.63-.93,5.24-1.41,7.84,0,.04-.02.08-.02.12-3.65,17.34,4.95,29.42,11.9,32.13,1.32.51,2.57.76,3.84.76,6.08,0,11.6-6.09,15.16-11.21,9.06-13.03,16.36-28.45,21.7-45.83,4.25-13.85,8.5-31.66,3.6-46.61-1.4-4.26-4.58-9.54-9.32-11.59-.17-.07-.48-.16-1.02-.16Z"/>
          <path d="M340.31,187.46c-8.87,0-17.27-3.66-23.67-10.31-10.91-11.35-15.4-29.36-11.7-47.02.31-1.66.61-3.34.92-5.04,5.48-30.06,11.69-64.13,39.62-83.32,6.93-4.76,14.92-8.05,22.51-9.27.97-.16,1.96-.23,2.93-.23,6.9,0,12.42,3.83,15.97,6.71,7.2,5.83,12.3,14.78,14.35,25.19,3.6,18.27.53,38.99-9.65,65.22-4.31,11.11-9.02,20.89-14.38,29.89-5.29,8.87-11.2,17.99-20.13,23.42-5.13,3.12-10.93,4.76-16.77,4.76h0ZM370.22,52.28c-1.89,0-5.66.97-12.88,5.6-4.06,2.61-7.84,6.14-11.23,10.48-12.85,16.48-16.64,37.82-20.3,58.46-.47,2.63-.93,5.24-1.41,7.84,0,.04-.02.08-.02.12-3.65,17.34,4.95,29.42,11.9,32.13,1.32.51,2.57.76,3.84.76,6.08,0,11.6-6.09,15.16-11.21,9.06-13.03,16.36-28.45,21.7-45.83,4.25-13.85,8.5-31.66,3.6-46.61-1.4-4.26-4.58-9.54-9.32-11.59-.17-.07-.48-.16-1.02-.16Z"/>
          <path d="M339.31,186.46c-8.87,0-17.27-3.66-23.67-10.31-10.91-11.35-15.4-29.36-11.7-47.02.31-1.66.61-3.34.92-5.04,5.48-30.06,11.69-64.13,39.62-83.32,6.93-4.76,14.92-8.05,22.51-9.27.97-.16,1.96-.23,2.93-.23,6.9,0,12.42,3.83,15.97,6.71,7.2,5.83,12.3,14.78,14.35,25.19,3.6,18.27.53,38.99-9.65,65.22-4.31,11.11-9.02,20.89-14.38,29.89-5.29,8.87-11.2,17.99-20.13,23.42-5.13,3.12-10.93,4.76-16.77,4.76h0ZM369.22,51.28c-1.89,0-5.66.97-12.88,5.6-4.06,2.61-7.84,6.14-11.23,10.48-12.85,16.48-16.64,37.82-20.3,58.46-.47,2.63-.93,5.24-1.41,7.84,0,.04-.02.08-.02.12-3.65,17.34,4.95,29.42,11.9,32.13,1.32.51,2.57.76,3.84.76,6.08,0,11.6-6.09,15.16-11.21,9.06-13.03,16.36-28.45,21.7-45.83,4.25-13.85,8.5-31.66,3.6-46.61-1.4-4.26-4.58-9.54-9.32-11.59-.17-.07-.48-.16-1.02-.16Z"/>
          <path d="M338.31,185.46c-8.87,0-17.27-3.66-23.67-10.31-10.91-11.35-15.4-29.36-11.7-47.02.31-1.66.61-3.34.92-5.04,5.48-30.06,11.69-64.13,39.62-83.32,6.93-4.76,14.92-8.05,22.51-9.27.97-.16,1.96-.23,2.93-.23,6.9,0,12.42,3.83,15.97,6.71,7.2,5.83,12.3,14.78,14.35,25.19,3.6,18.27.53,38.99-9.65,65.22-4.31,11.11-9.02,20.89-14.38,29.89-5.29,8.87-11.2,17.99-20.13,23.42-5.13,3.12-10.93,4.76-16.77,4.76h0ZM368.22,50.28c-1.89,0-5.66.97-12.88,5.6-4.06,2.61-7.84,6.14-11.23,10.48-12.85,16.48-16.64,37.82-20.3,58.46-.47,2.63-.93,5.24-1.41,7.84,0,.04-.02.08-.02.12-3.65,17.34,4.95,29.42,11.9,32.13,1.32.51,2.57.76,3.84.76,6.08,0,11.6-6.09,15.16-11.21,9.06-13.03,16.36-28.45,21.7-45.83,4.25-13.85,8.5-31.66,3.6-46.61-1.4-4.26-4.58-9.54-9.32-11.59-.17-.07-.48-.16-1.02-.16Z"/>
          <path d="M337.31,184.46c-8.87,0-17.27-3.66-23.67-10.31-10.91-11.35-15.4-29.36-11.7-47.02.31-1.66.61-3.34.92-5.04,5.48-30.06,11.69-64.13,39.62-83.32,6.93-4.76,14.92-8.05,22.51-9.27.97-.16,1.96-.23,2.93-.23,6.9,0,12.42,3.83,15.97,6.71,7.2,5.83,12.3,14.78,14.35,25.19,3.6,18.27.53,38.99-9.65,65.22-4.31,11.11-9.02,20.89-14.38,29.89-5.29,8.87-11.2,17.99-20.13,23.42-5.13,3.12-10.93,4.76-16.77,4.76h0ZM367.22,49.28c-1.89,0-5.66.97-12.88,5.6-4.06,2.61-7.84,6.14-11.23,10.48-12.85,16.48-16.64,37.82-20.3,58.46-.47,2.63-.93,5.24-1.41,7.84,0,.04-.02.08-.02.12-3.65,17.34,4.95,29.42,11.9,32.13,1.32.51,2.57.76,3.84.76,6.08,0,11.6-6.09,15.16-11.21,9.06-13.03,16.36-28.45,21.7-45.83,4.25-13.85,8.5-31.66,3.6-46.61-1.4-4.26-4.58-9.54-9.32-11.59-.17-.07-.48-.16-1.02-.16Z"/>
          <path d="M336.31,183.46c-8.87,0-17.27-3.66-23.67-10.31-10.91-11.35-15.4-29.36-11.7-47.02.31-1.66.61-3.34.92-5.04,5.48-30.06,11.69-64.13,39.62-83.32,6.93-4.76,14.92-8.05,22.51-9.27.97-.16,1.96-.23,2.93-.23,6.9,0,12.42,3.83,15.97,6.71,7.2,5.83,12.3,14.78,14.35,25.19,3.6,18.27.53,38.99-9.65,65.22-4.31,11.11-9.02,20.89-14.38,29.89-5.29,8.87-11.2,17.99-20.13,23.42-5.13,3.12-10.93,4.76-16.77,4.76h0ZM366.22,48.28c-1.89,0-5.66.97-12.88,5.6-4.06,2.61-7.84,6.14-11.23,10.48-12.85,16.48-16.64,37.82-20.3,58.46-.47,2.63-.93,5.24-1.41,7.84,0,.04-.02.08-.02.12-3.65,17.34,4.95,29.42,11.9,32.13,1.32.51,2.57.76,3.84.76,6.08,0,11.6-6.09,15.16-11.21,9.06-13.03,16.36-28.45,21.7-45.83,4.25-13.85,8.5-31.66,3.6-46.61-1.4-4.26-4.58-9.54-9.32-11.59-.17-.07-.48-.16-1.02-.16Z"/>
        </g>
        <path class="cls-3" d="M392.34,61.13c-1.68-8.53-5.75-16.73-12.59-22.27-4.28-3.47-9.29-6.33-14.97-5.42-7.22,1.16-14.46,4.32-20.47,8.45-27.75,19.07-32.82,54.68-38.47,85.2-3.07,14.58-.23,31.53,10.4,42.58,9.12,9.49,22.91,11.62,34.24,4.74,8.17-4.96,13.64-13.66,18.43-21.7,5.52-9.27,10.11-19.09,14.02-29.15,7.49-19.3,13.49-41.68,9.4-62.44ZM377.75,108.11c-5.09,16.59-12.44,32.94-22.37,47.22-5.61,8.06-14.26,16.4-24.92,12.25-14.01-5.46-17.71-24.81-14.98-37.82,4.37-23.62,7.4-48.86,22.69-68.47,3.5-4.49,7.67-8.53,12.47-11.61,4.47-2.87,13.26-8.13,18.58-5.83,5.96,2.57,10.14,8.66,12.09,14.62,5.21,15.9,1.19,34.13-3.57,49.63Z"/>
        <path class="cls-1" d="M392.34,61.13c-1.68-8.53-5.75-16.73-12.59-22.27-4.28-3.47-9.29-6.33-14.97-5.42-7.22,1.16-14.46,4.32-20.47,8.45-27.75,19.07-32.82,54.68-38.47,85.2-3.07,14.58-.23,31.53,10.4,42.58,9.12,9.49,22.91,11.62,34.24,4.74,8.17-4.96,13.64-13.66,18.43-21.7,5.52-9.27,10.11-19.09,14.02-29.15,7.49-19.3,13.49-41.68,9.4-62.44ZM377.75,108.11c-5.09,16.59-12.44,32.94-22.37,47.22-5.61,8.06-14.26,16.4-24.92,12.25-14.01-5.46-17.71-24.81-14.98-37.82,4.37-23.62,7.4-48.86,22.69-68.47,3.5-4.49,7.67-8.53,12.47-11.61,4.47-2.87,13.26-8.13,18.58-5.83,5.96,2.57,10.14,8.66,12.09,14.62,5.21,15.9,1.19,34.13-3.57,49.63Z"/>
      </g>
      <g>
        <g>
          <g>
            <path d="M187.52,238.79c-1.41,0-2.76-.52-3.8-1.48-1.16-1.05-1.82-2.53-1.82-4.15v-38.37c0-1.44.54-2.82,1.52-3.89.97-1.06,2.3-1.71,3.73-1.84l9.99-.87c.82-.07,1.64-.11,2.41-.11,4.07,0,7.52,1,10.25,2.99,2.48,1.81,5.44,5.36,5.44,12.01,0,3.47-.85,6.15-2.02,8.2,1.54,2.21,2.7,5.24,2.7,9.39,0,4.9-1.7,9.1-4.92,12.13-3.06,2.89-6.93,4.55-11.51,4.95l-11.47,1c-.14.01-.36.02-.5.02Z"/>
            <path d="M212.23,236.62c-1.71,0-3.28-.74-4.31-2.03-1.06-1.32-1.42-3.01-1.03-4.77l8.21-38.97c.51-2.58,2.59-4.46,5.21-4.69l9.25-.81c.14-.01.39-.02.53-.02,2.73,0,4.99,1.87,5.54,4.55l8.15,37.53.04.14c.1.4.15.82.15,1.23,0,2.95-2.18,5.28-5.18,5.55l-8.24.72c-.19.02-.37.02-.55.02-1.87,0-3.49-.85-4.51-2.21-.89,1.69-2.59,2.86-4.64,3.04l-8.06.71c-.19.02-.37.02-.55.02Z"/>
            <path d="M245.93,233.67c-1.41,0-2.76-.52-3.8-1.48-1.17-1.07-1.82-2.54-1.82-4.15v-25.54l-1.6.14c-.14.01-.36.02-.5.02-1.4,0-2.75-.52-3.78-1.46-1.16-1.05-1.83-2.57-1.83-4.16v-6.7c0-1.43.54-2.81,1.51-3.87,1-1.08,2.32-1.73,3.74-1.85l23.78-2.08c.14-.01.36-.02.5-.02,1.39,0,2.72.51,3.76,1.44,1.22,1.13,1.86,2.6,1.86,4.19v6.7c0,1.44-.54,2.82-1.52,3.88-.99,1.07-2.31,1.71-3.73,1.84l-2.76.24v26.41c0,1.44-.54,2.82-1.52,3.88-.97,1.06-2.3,1.71-3.73,1.84l-8.06.71c-.14.01-.36.02-.5.02Z"/>
            <path d="M266.53,231.87c-1.41,0-2.76-.52-3.8-1.48-1.16-1.05-1.82-2.53-1.82-4.15v-38.37c0-1.45.54-2.83,1.53-3.9.96-1.05,2.29-1.7,3.71-1.83l20.44-1.79c.14-.01.36-.02.5-.02,1.4,0,2.74.51,3.77,1.45,1.21,1.13,1.84,2.59,1.84,4.17v6.7c0,1.44-.54,2.82-1.52,3.88-.99,1.07-2.3,1.71-3.73,1.84l-1.3.11c.9,1.03,1.38,2.32,1.38,3.7v6.75c0,1.1-.31,2.17-.9,3.08.14-.01.32-.02.45-.02,1.4,0,2.75.52,3.78,1.46,1.18,1.09,1.83,2.56,1.83,4.16v6.7c0,1.44-.54,2.82-1.52,3.88-.97,1.06-2.3,1.71-3.73,1.84l-20.44,1.79c-.14.01-.36.02-.5.02Z"/>
            <path d="M291.57,229.68c-1.41,0-2.76-.52-3.8-1.48-1.16-1.05-1.82-2.53-1.82-4.15v-38.37c0-1.44.54-2.82,1.52-3.88.97-1.06,2.3-1.71,3.73-1.84l12.2-1.07c.53-.05,1.06-.07,1.58-.07,2.54,0,4.9.56,7.02,1.67,2.62,1.37,4.66,3.44,6.06,6.15,1.3,2.51,1.95,5.39,1.95,8.57,0,2.81-.54,5.45-1.59,7.83-.64,1.44-1.44,2.76-2.4,3.93l4.06,13.39c.02.07.12.44.12.44.1.4.15.82.15,1.23,0,2.99-2.18,5.34-5.19,5.6l-8.28.72c-.19.02-.37.02-.54.02-1.09,0-2.11-.29-2.97-.8-.92.79-2.04,1.26-3.24,1.37l-8.06.71c-.14.01-.36.02-.5.02Z"/>
            <path d="M318.87,227.29c-1.41,0-2.76-.52-3.8-1.48-1.17-1.06-1.82-2.54-1.82-4.15v-38.37c0-1.43.54-2.81,1.51-3.87.99-1.07,2.31-1.72,3.74-1.85l8.06-.71c.14-.01.36-.02.5-.02,1.4,0,2.74.52,3.77,1.45,1.2,1.1,1.85,2.58,1.85,4.17v38.37c0,1.44-.54,2.82-1.52,3.88-.97,1.06-2.3,1.71-3.73,1.84l-8.06.71c-.14.01-.36.02-.5.02Z"/>
            <path d="M341.21,225.73c-2.38,0-4.59-.43-6.57-1.26-2.69-1.14-4.82-2.93-6.33-5.32-1.48-2.33-2.22-5.03-2.22-8.02v-1.76c0-1.43.53-2.81,1.5-3.87.83-.9,1.88-1.5,3.03-1.74-1.06-1.1-2-2.36-2.81-3.79-1.3-2.28-1.96-4.96-1.96-7.95s.7-5.78,2.07-8.27c1.39-2.52,3.37-4.57,5.88-6.08,2.41-1.46,5.17-2.33,8.2-2.59.62-.05,1.24-.08,1.83-.08,2.43,0,4.69.45,6.71,1.34,2.72,1.19,4.86,3.06,6.36,5.56,1.44,2.38,2.17,5.16,2.17,8.27v1.36c0,1.44-.54,2.82-1.52,3.88-.87.95-2.02,1.57-3.27,1.78,1.41,1.28,2.55,2.74,3.41,4.35,1.06,2,1.6,4.36,1.6,6.99,0,4.74-1.56,8.74-4.63,11.89-2.98,3.06-6.88,4.83-11.57,5.24-.64.06-1.27.08-1.89.08Z"/>
            <path d="M364.73,223.28c-1.42,0-2.77-.53-3.81-1.49-1.16-1.06-1.8-2.54-1.8-4.13v-25.54l-1.6.14c-.14.01-.36.02-.5.02-1.4,0-2.75-.52-3.78-1.46-1.18-1.07-1.83-2.55-1.83-4.16v-6.7c0-1.43.53-2.8,1.49-3.86,1.01-1.09,2.33-1.74,3.75-1.86l23.78-2.08c.14-.01.36-.02.5-.02,1.4,0,2.73.52,3.77,1.45,1.2,1.1,1.85,2.58,1.85,4.17v6.7c0,1.45-.54,2.83-1.53,3.9-.96,1.05-2.29,1.7-3.72,1.83l-2.76.24v26.41c0,1.43-.53,2.81-1.5,3.87-1,1.08-2.32,1.73-3.74,1.85l-8.06.71c-.14.01-.36.02-.5.02Z"/>
            <path d="M380.46,221.9c-1.71,0-3.28-.74-4.31-2.03-1.06-1.32-1.42-3.02-1.02-4.77l8.2-38.97c.51-2.58,2.59-4.46,5.21-4.68l9.25-.81c.14-.01.39-.02.53-.02,2.73,0,4.99,1.87,5.54,4.55l8.14,37.52.04.14c.1.4.15.82.15,1.23,0,2.95-2.18,5.28-5.18,5.55l-8.24.72c-.19.02-.37.02-.55.02-1.87,0-3.49-.85-4.51-2.21-.89,1.69-2.59,2.86-4.65,3.04l-8.05.71c-.19.02-.37.02-.55.02Z"/>
          </g>
          <g>
            <path d="M186.52,237.79c-1.41,0-2.76-.52-3.8-1.48-1.16-1.05-1.82-2.53-1.82-4.15v-38.37c0-1.44.54-2.82,1.52-3.89.97-1.06,2.3-1.71,3.73-1.84l9.99-.87c.82-.07,1.64-.11,2.41-.11,4.07,0,7.52,1,10.25,2.99,2.48,1.81,5.44,5.36,5.44,12.01,0,3.47-.85,6.15-2.02,8.2,1.54,2.21,2.7,5.24,2.7,9.39,0,4.9-1.7,9.1-4.92,12.13-3.06,2.89-6.93,4.55-11.51,4.95l-11.47,1c-.14.01-.36.02-.5.02Z"/>
            <path d="M211.23,235.62c-1.71,0-3.28-.74-4.31-2.03-1.06-1.32-1.42-3.01-1.03-4.77l8.21-38.97c.51-2.58,2.59-4.46,5.21-4.69l9.25-.81c.14-.01.39-.02.53-.02,2.73,0,4.99,1.87,5.54,4.55l8.15,37.53.04.14c.1.4.15.82.15,1.23,0,2.95-2.18,5.28-5.18,5.55l-8.24.72c-.19.02-.37.02-.55.02-1.87,0-3.49-.85-4.51-2.21-.89,1.69-2.59,2.86-4.64,3.04l-8.06.71c-.19.02-.37.02-.55.02Z"/>
            <path d="M244.93,232.67c-1.41,0-2.76-.52-3.8-1.48-1.17-1.07-1.82-2.54-1.82-4.15v-25.54l-1.6.14c-.14.01-.36.02-.5.02-1.4,0-2.75-.52-3.78-1.46-1.16-1.05-1.83-2.57-1.83-4.16v-6.7c0-1.43.54-2.81,1.51-3.87,1-1.08,2.32-1.73,3.74-1.85l23.78-2.08c.14-.01.36-.02.5-.02,1.39,0,2.72.51,3.76,1.44,1.22,1.13,1.86,2.6,1.86,4.19v6.7c0,1.44-.54,2.82-1.52,3.88-.99,1.07-2.31,1.71-3.73,1.84l-2.76.24v26.41c0,1.44-.54,2.82-1.52,3.88-.97,1.06-2.3,1.71-3.73,1.84l-8.06.71c-.14.01-.36.02-.5.02Z"/>
            <path d="M265.53,230.87c-1.41,0-2.76-.52-3.8-1.48-1.16-1.05-1.82-2.53-1.82-4.15v-38.37c0-1.45.54-2.83,1.53-3.9.96-1.05,2.29-1.7,3.71-1.83l20.44-1.79c.14-.01.36-.02.5-.02,1.4,0,2.74.51,3.77,1.45,1.21,1.13,1.84,2.59,1.84,4.17v6.7c0,1.44-.54,2.82-1.52,3.88-.99,1.07-2.3,1.71-3.73,1.84l-1.3.11c.9,1.03,1.38,2.32,1.38,3.7v6.75c0,1.1-.31,2.17-.9,3.08.14-.01.32-.02.45-.02,1.4,0,2.75.52,3.78,1.46,1.18,1.09,1.83,2.56,1.83,4.16v6.7c0,1.44-.54,2.82-1.52,3.88-.97,1.06-2.3,1.71-3.73,1.84l-20.44,1.79c-.14.01-.36.02-.5.02Z"/>
            <path d="M290.57,228.68c-1.41,0-2.76-.52-3.8-1.48-1.16-1.05-1.82-2.53-1.82-4.15v-38.37c0-1.44.54-2.82,1.52-3.88.97-1.06,2.3-1.71,3.73-1.84l12.2-1.07c.53-.05,1.06-.07,1.58-.07,2.54,0,4.9.56,7.02,1.67,2.62,1.37,4.66,3.44,6.06,6.15,1.3,2.51,1.95,5.39,1.95,8.57,0,2.81-.54,5.45-1.59,7.83-.64,1.44-1.44,2.76-2.4,3.93l4.06,13.39c.02.07.12.44.12.44.1.4.15.82.15,1.23,0,2.99-2.18,5.34-5.19,5.6l-8.28.72c-.19.02-.37.02-.54.02-1.09,0-2.11-.29-2.97-.8-.92.79-2.04,1.26-3.24,1.37l-8.06.71c-.14.01-.36.02-.5.02Z"/>
            <path d="M317.87,226.29c-1.41,0-2.76-.52-3.8-1.48-1.17-1.06-1.82-2.54-1.82-4.15v-38.37c0-1.43.54-2.81,1.51-3.87.99-1.07,2.31-1.72,3.74-1.85l8.06-.71c.14-.01.36-.02.5-.02,1.4,0,2.74.52,3.77,1.45,1.2,1.1,1.85,2.58,1.85,4.17v38.37c0,1.44-.54,2.82-1.52,3.88-.97,1.06-2.3,1.71-3.73,1.84l-8.06.71c-.14.01-.36.02-.5.02Z"/>
            <path d="M340.21,224.73c-2.38,0-4.59-.43-6.57-1.26-2.69-1.14-4.82-2.93-6.33-5.32-1.48-2.33-2.22-5.03-2.22-8.02v-1.76c0-1.43.53-2.81,1.5-3.87.83-.9,1.88-1.5,3.03-1.74-1.06-1.1-2-2.36-2.81-3.79-1.3-2.28-1.96-4.96-1.96-7.95s.7-5.78,2.07-8.27c1.39-2.52,3.37-4.57,5.88-6.08,2.41-1.46,5.17-2.33,8.2-2.59.62-.05,1.24-.08,1.83-.08,2.43,0,4.69.45,6.71,1.34,2.72,1.19,4.86,3.06,6.36,5.56,1.44,2.38,2.17,5.16,2.17,8.27v1.36c0,1.44-.54,2.82-1.52,3.88-.87.95-2.02,1.57-3.27,1.78,1.41,1.28,2.55,2.74,3.41,4.35,1.06,2,1.6,4.36,1.6,6.99,0,4.74-1.56,8.74-4.63,11.89-2.98,3.06-6.88,4.83-11.57,5.24-.64.06-1.27.08-1.89.08Z"/>
            <path d="M363.73,222.28c-1.42,0-2.77-.53-3.81-1.49-1.16-1.06-1.8-2.54-1.8-4.13v-25.54l-1.6.14c-.14.01-.36.02-.5.02-1.4,0-2.75-.52-3.78-1.46-1.18-1.07-1.83-2.55-1.83-4.16v-6.7c0-1.43.53-2.8,1.49-3.86,1.01-1.09,2.33-1.74,3.75-1.86l23.78-2.08c.14-.01.36-.02.5-.02,1.4,0,2.73.52,3.77,1.45,1.2,1.1,1.85,2.58,1.85,4.17v6.7c0,1.45-.54,2.83-1.53,3.9-.96,1.05-2.29,1.7-3.72,1.83l-2.76.24v26.41c0,1.43-.53,2.81-1.5,3.87-1,1.08-2.32,1.73-3.74,1.85l-8.06.71c-.14.01-.36.02-.5.02Z"/>
            <path d="M379.46,220.9c-1.71,0-3.28-.74-4.31-2.03-1.06-1.32-1.42-3.02-1.02-4.77l8.2-38.97c.51-2.58,2.59-4.46,5.21-4.68l9.25-.81c.14-.01.39-.02.53-.02,2.73,0,4.99,1.87,5.54,4.55l8.14,37.52.04.14c.1.4.15.82.15,1.23,0,2.95-2.18,5.28-5.18,5.55l-8.24.72c-.19.02-.37.02-.55.02-1.87,0-3.49-.85-4.51-2.21-.89,1.69-2.59,2.86-4.65,3.04l-8.05.71c-.19.02-.37.02-.55.02Z"/>
          </g>
          <g>
            <path d="M185.52,236.79c-1.41,0-2.76-.52-3.8-1.48-1.16-1.05-1.82-2.53-1.82-4.15v-38.37c0-1.44.54-2.82,1.52-3.89.97-1.06,2.3-1.71,3.73-1.84l9.99-.87c.82-.07,1.64-.11,2.41-.11,4.07,0,7.52,1,10.25,2.99,2.48,1.81,5.44,5.36,5.44,12.01,0,3.47-.85,6.15-2.02,8.2,1.54,2.21,2.7,5.24,2.7,9.39,0,4.9-1.7,9.1-4.92,12.13-3.06,2.89-6.93,4.55-11.51,4.95l-11.47,1c-.14.01-.36.02-.5.02Z"/>
            <path d="M210.23,234.62c-1.71,0-3.28-.74-4.31-2.03-1.06-1.32-1.42-3.01-1.03-4.77l8.21-38.97c.51-2.58,2.59-4.46,5.21-4.69l9.25-.81c.14-.01.39-.02.53-.02,2.73,0,4.99,1.87,5.54,4.55l8.15,37.53.04.14c.1.4.15.82.15,1.23,0,2.95-2.18,5.28-5.18,5.55l-8.24.72c-.19.02-.37.02-.55.02-1.87,0-3.49-.85-4.51-2.21-.89,1.69-2.59,2.86-4.64,3.04l-8.06.71c-.19.02-.37.02-.55.02Z"/>
            <path d="M243.93,231.67c-1.41,0-2.76-.52-3.8-1.48-1.17-1.07-1.82-2.54-1.82-4.15v-25.54l-1.6.14c-.14.01-.36.02-.5.02-1.4,0-2.75-.52-3.78-1.46-1.16-1.05-1.83-2.57-1.83-4.16v-6.7c0-1.43.54-2.81,1.51-3.87,1-1.08,2.32-1.73,3.74-1.85l23.78-2.08c.14-.01.36-.02.5-.02,1.39,0,2.72.51,3.76,1.44,1.22,1.13,1.86,2.6,1.86,4.19v6.7c0,1.44-.54,2.82-1.52,3.88-.99,1.07-2.31,1.71-3.73,1.84l-2.76.24v26.41c0,1.44-.54,2.82-1.52,3.88-.97,1.06-2.3,1.71-3.73,1.84l-8.06.71c-.14.01-.36.02-.5.02Z"/>
            <path d="M264.53,229.87c-1.41,0-2.76-.52-3.8-1.48-1.16-1.05-1.82-2.53-1.82-4.15v-38.37c0-1.45.54-2.83,1.53-3.9.96-1.05,2.29-1.7,3.71-1.83l20.44-1.79c.14-.01.36-.02.5-.02,1.4,0,2.74.51,3.77,1.45,1.21,1.13,1.84,2.59,1.84,4.17v6.7c0,1.44-.54,2.82-1.52,3.88-.99,1.07-2.3,1.71-3.73,1.84l-1.3.11c.9,1.03,1.38,2.32,1.38,3.7v6.75c0,1.1-.31,2.17-.9,3.08.14-.01.32-.02.45-.02,1.4,0,2.75.52,3.78,1.46,1.18,1.09,1.83,2.56,1.83,4.16v6.7c0,1.44-.54,2.82-1.52,3.88-.97,1.06-2.3,1.71-3.73,1.84l-20.44,1.79c-.14.01-.36.02-.5.02Z"/>
            <path d="M289.57,227.68c-1.41,0-2.76-.52-3.8-1.48-1.16-1.05-1.82-2.53-1.82-4.15v-38.37c0-1.44.54-2.82,1.52-3.88.97-1.06,2.3-1.71,3.73-1.84l12.2-1.07c.53-.05,1.06-.07,1.58-.07,2.54,0,4.9.56,7.02,1.67,2.62,1.37,4.66,3.44,6.06,6.15,1.3,2.51,1.95,5.39,1.95,8.57,0,2.81-.54,5.45-1.59,7.83-.64,1.44-1.44,2.76-2.4,3.93l4.06,13.39c.02.07.12.44.12.44.1.4.15.82.15,1.23,0,2.99-2.18,5.34-5.19,5.6l-8.28.72c-.19.02-.37.02-.54.02-1.09,0-2.11-.29-2.97-.8-.92.79-2.04,1.26-3.24,1.37l-8.06.71c-.14.01-.36.02-.5.02Z"/>
            <path d="M316.87,225.29c-1.41,0-2.76-.52-3.8-1.48-1.17-1.06-1.82-2.54-1.82-4.15v-38.37c0-1.43.54-2.81,1.51-3.87.99-1.07,2.31-1.72,3.74-1.85l8.06-.71c.14-.01.36-.02.5-.02,1.4,0,2.74.52,3.77,1.45,1.2,1.1,1.85,2.58,1.85,4.17v38.37c0,1.44-.54,2.82-1.52,3.88-.97,1.06-2.3,1.71-3.73,1.84l-8.06.71c-.14.01-.36.02-.5.02Z"/>
            <path d="M339.21,223.73c-2.38,0-4.59-.43-6.57-1.26-2.69-1.14-4.82-2.93-6.33-5.32-1.48-2.33-2.22-5.03-2.22-8.02v-1.76c0-1.43.53-2.81,1.5-3.87.83-.9,1.88-1.5,3.03-1.74-1.06-1.1-2-2.36-2.81-3.79-1.3-2.28-1.96-4.96-1.96-7.95s.7-5.78,2.07-8.27c1.39-2.52,3.37-4.57,5.88-6.08,2.41-1.46,5.17-2.33,8.2-2.59.62-.05,1.24-.08,1.83-.08,2.43,0,4.69.45,6.71,1.34,2.72,1.19,4.86,3.06,6.36,5.56,1.44,2.38,2.17,5.16,2.17,8.27v1.36c0,1.44-.54,2.82-1.52,3.88-.87.95-2.02,1.57-3.27,1.78,1.41,1.28,2.55,2.74,3.41,4.35,1.06,2,1.6,4.36,1.6,6.99,0,4.74-1.56,8.74-4.63,11.89-2.98,3.06-6.88,4.83-11.57,5.24-.64.06-1.27.08-1.89.08Z"/>
            <path d="M362.73,221.28c-1.42,0-2.77-.53-3.81-1.49-1.16-1.06-1.8-2.54-1.8-4.13v-25.54l-1.6.14c-.14.01-.36.02-.5.02-1.4,0-2.75-.52-3.78-1.46-1.18-1.07-1.83-2.55-1.83-4.16v-6.7c0-1.43.53-2.8,1.49-3.86,1.01-1.09,2.33-1.74,3.75-1.86l23.78-2.08c.14-.01.36-.02.5-.02,1.4,0,2.73.52,3.77,1.45,1.2,1.1,1.85,2.58,1.85,4.17v6.7c0,1.45-.54,2.83-1.53,3.9-.96,1.05-2.29,1.7-3.72,1.83l-2.76.24v26.41c0,1.43-.53,2.81-1.5,3.87-1,1.08-2.32,1.73-3.74,1.85l-8.06.71c-.14.01-.36.02-.5.02Z"/>
            <path d="M378.46,219.9c-1.71,0-3.28-.74-4.31-2.03-1.06-1.32-1.42-3.02-1.02-4.77l8.2-38.97c.51-2.58,2.59-4.46,5.21-4.68l9.25-.81c.14-.01.39-.02.53-.02,2.73,0,4.99,1.87,5.54,4.55l8.14,37.52.04.14c.1.4.15.82.15,1.23,0,2.95-2.18,5.28-5.18,5.55l-8.24.72c-.19.02-.37.02-.55.02-1.87,0-3.49-.85-4.51-2.21-.89,1.69-2.59,2.86-4.65,3.04l-8.05.71c-.19.02-.37.02-.55.02Z"/>
          </g>
          <g>
            <path d="M184.52,235.79c-1.41,0-2.76-.52-3.8-1.48-1.16-1.05-1.82-2.53-1.82-4.15v-38.37c0-1.44.54-2.82,1.52-3.89.97-1.06,2.3-1.71,3.73-1.84l9.99-.87c.82-.07,1.64-.11,2.41-.11,4.07,0,7.52,1,10.25,2.99,2.48,1.81,5.44,5.36,5.44,12.01,0,3.47-.85,6.15-2.02,8.2,1.54,2.21,2.7,5.24,2.7,9.39,0,4.9-1.7,9.1-4.92,12.13-3.06,2.89-6.93,4.55-11.51,4.95l-11.47,1c-.14.01-.36.02-.5.02Z"/>
            <path d="M209.23,233.62c-1.71,0-3.28-.74-4.31-2.03-1.06-1.32-1.42-3.01-1.03-4.77l8.21-38.97c.51-2.58,2.59-4.46,5.21-4.69l9.25-.81c.14-.01.39-.02.53-.02,2.73,0,4.99,1.87,5.54,4.55l8.15,37.53.04.14c.1.4.15.82.15,1.23,0,2.95-2.18,5.28-5.18,5.55l-8.24.72c-.19.02-.37.02-.55.02-1.87,0-3.49-.85-4.51-2.21-.89,1.69-2.59,2.86-4.64,3.04l-8.06.71c-.19.02-.37.02-.55.02Z"/>
            <path d="M242.93,230.67c-1.41,0-2.76-.52-3.8-1.48-1.17-1.07-1.82-2.54-1.82-4.15v-25.54l-1.6.14c-.14.01-.36.02-.5.02-1.4,0-2.75-.52-3.78-1.46-1.16-1.05-1.83-2.57-1.83-4.16v-6.7c0-1.43.54-2.81,1.51-3.87,1-1.08,2.32-1.73,3.74-1.85l23.78-2.08c.14-.01.36-.02.5-.02,1.39,0,2.72.51,3.76,1.44,1.22,1.13,1.86,2.6,1.86,4.19v6.7c0,1.44-.54,2.82-1.52,3.88-.99,1.07-2.31,1.71-3.73,1.84l-2.76.24v26.41c0,1.44-.54,2.82-1.52,3.88-.97,1.06-2.3,1.71-3.73,1.84l-8.06.71c-.14.01-.36.02-.5.02Z"/>
            <path d="M263.53,228.87c-1.41,0-2.76-.52-3.8-1.48-1.16-1.05-1.82-2.53-1.82-4.15v-38.37c0-1.45.54-2.83,1.53-3.9.96-1.05,2.29-1.7,3.71-1.83l20.44-1.79c.14-.01.36-.02.5-.02,1.4,0,2.74.51,3.77,1.45,1.21,1.13,1.84,2.59,1.84,4.17v6.7c0,1.44-.54,2.82-1.52,3.88-.99,1.07-2.3,1.71-3.73,1.84l-1.3.11c.9,1.03,1.38,2.32,1.38,3.7v6.75c0,1.1-.31,2.17-.9,3.08.14-.01.32-.02.45-.02,1.4,0,2.75.52,3.78,1.46,1.18,1.09,1.83,2.56,1.83,4.16v6.7c0,1.44-.54,2.82-1.52,3.88-.97,1.06-2.3,1.71-3.73,1.84l-20.44,1.79c-.14.01-.36.02-.5.02Z"/>
            <path d="M288.57,226.68c-1.41,0-2.76-.52-3.8-1.48-1.16-1.05-1.82-2.53-1.82-4.15v-38.37c0-1.44.54-2.82,1.52-3.88.97-1.06,2.3-1.71,3.73-1.84l12.2-1.07c.53-.05,1.06-.07,1.58-.07,2.54,0,4.9.56,7.02,1.67,2.62,1.37,4.66,3.44,6.06,6.15,1.3,2.51,1.95,5.39,1.95,8.57,0,2.81-.54,5.45-1.59,7.83-.64,1.44-1.44,2.76-2.4,3.93l4.06,13.39c.02.07.12.44.12.44.1.4.15.82.15,1.23,0,2.99-2.18,5.34-5.19,5.6l-8.28.72c-.19.02-.37.02-.54.02-1.09,0-2.11-.29-2.97-.8-.92.79-2.04,1.26-3.24,1.37l-8.06.71c-.14.01-.36.02-.5.02Z"/>
            <path d="M315.87,224.29c-1.41,0-2.76-.52-3.8-1.48-1.17-1.06-1.82-2.54-1.82-4.15v-38.37c0-1.43.54-2.81,1.51-3.87.99-1.07,2.31-1.72,3.74-1.85l8.06-.71c.14-.01.36-.02.5-.02,1.4,0,2.74.52,3.77,1.45,1.2,1.1,1.85,2.58,1.85,4.17v38.37c0,1.44-.54,2.82-1.52,3.88-.97,1.06-2.3,1.71-3.73,1.84l-8.06.71c-.14.01-.36.02-.5.02Z"/>
            <path d="M338.21,222.73c-2.38,0-4.59-.43-6.57-1.26-2.69-1.14-4.82-2.93-6.33-5.32-1.48-2.33-2.22-5.03-2.22-8.02v-1.76c0-1.43.53-2.81,1.5-3.87.83-.9,1.88-1.5,3.03-1.74-1.06-1.1-2-2.36-2.81-3.79-1.3-2.28-1.96-4.96-1.96-7.95s.7-5.78,2.07-8.27c1.39-2.52,3.37-4.57,5.88-6.08,2.41-1.46,5.17-2.33,8.2-2.59.62-.05,1.24-.08,1.83-.08,2.43,0,4.69.45,6.71,1.34,2.72,1.19,4.86,3.06,6.36,5.56,1.44,2.38,2.17,5.16,2.17,8.27v1.36c0,1.44-.54,2.82-1.52,3.88-.87.95-2.02,1.57-3.27,1.78,1.41,1.28,2.55,2.74,3.41,4.35,1.06,2,1.6,4.36,1.6,6.99,0,4.74-1.56,8.74-4.63,11.89-2.98,3.06-6.88,4.83-11.57,5.24-.64.06-1.27.08-1.89.08Z"/>
            <path d="M361.73,220.28c-1.42,0-2.77-.53-3.81-1.49-1.16-1.06-1.8-2.54-1.8-4.13v-25.54l-1.6.14c-.14.01-.36.02-.5.02-1.4,0-2.75-.52-3.78-1.46-1.18-1.07-1.83-2.55-1.83-4.16v-6.7c0-1.43.53-2.8,1.49-3.86,1.01-1.09,2.33-1.74,3.75-1.86l23.78-2.08c.14-.01.36-.02.5-.02,1.4,0,2.73.52,3.77,1.45,1.2,1.1,1.85,2.58,1.85,4.17v6.7c0,1.45-.54,2.83-1.53,3.9-.96,1.05-2.29,1.7-3.72,1.83l-2.76.24v26.41c0,1.43-.53,2.81-1.5,3.87-1,1.08-2.32,1.73-3.74,1.85l-8.06.71c-.14.01-.36.02-.5.02Z"/>
            <path d="M377.46,218.9c-1.71,0-3.28-.74-4.31-2.03-1.06-1.32-1.42-3.02-1.02-4.77l8.2-38.97c.51-2.58,2.59-4.46,5.21-4.68l9.25-.81c.14-.01.39-.02.53-.02,2.73,0,4.99,1.87,5.54,4.55l8.14,37.52.04.14c.1.4.15.82.15,1.23,0,2.95-2.18,5.28-5.18,5.55l-8.24.72c-.19.02-.37.02-.55.02-1.87,0-3.49-.85-4.51-2.21-.89,1.69-2.59,2.86-4.65,3.04l-8.05.71c-.19.02-.37.02-.55.02Z"/>
          </g>
          <g>
            <path d="M183.52,234.79c-1.41,0-2.76-.52-3.8-1.48-1.16-1.05-1.82-2.53-1.82-4.15v-38.37c0-1.44.54-2.82,1.52-3.89.97-1.06,2.3-1.71,3.73-1.84l9.99-.87c.82-.07,1.64-.11,2.41-.11,4.07,0,7.52,1,10.25,2.99,2.48,1.81,5.44,5.36,5.44,12.01,0,3.47-.85,6.15-2.02,8.2,1.54,2.21,2.7,5.24,2.7,9.39,0,4.9-1.7,9.1-4.92,12.13-3.06,2.89-6.93,4.55-11.51,4.95l-11.47,1c-.14.01-.36.02-.5.02Z"/>
            <path d="M208.23,232.62c-1.71,0-3.28-.74-4.31-2.03-1.06-1.32-1.42-3.01-1.03-4.77l8.21-38.97c.51-2.58,2.59-4.46,5.21-4.69l9.25-.81c.14-.01.39-.02.53-.02,2.73,0,4.99,1.87,5.54,4.55l8.15,37.53.04.14c.1.4.15.82.15,1.23,0,2.95-2.18,5.28-5.18,5.55l-8.24.72c-.19.02-.37.02-.55.02-1.87,0-3.49-.85-4.51-2.21-.89,1.69-2.59,2.86-4.64,3.04l-8.06.71c-.19.02-.37.02-.55.02Z"/>
            <path d="M241.93,229.67c-1.41,0-2.76-.52-3.8-1.48-1.17-1.07-1.82-2.54-1.82-4.15v-25.54l-1.6.14c-.14.01-.36.02-.5.02-1.4,0-2.75-.52-3.78-1.46-1.16-1.05-1.83-2.57-1.83-4.16v-6.7c0-1.43.54-2.81,1.51-3.87,1-1.08,2.32-1.73,3.74-1.85l23.78-2.08c.14-.01.36-.02.5-.02,1.39,0,2.72.51,3.76,1.44,1.22,1.13,1.86,2.6,1.86,4.19v6.7c0,1.44-.54,2.82-1.52,3.88-.99,1.07-2.31,1.71-3.73,1.84l-2.76.24v26.41c0,1.44-.54,2.82-1.52,3.88-.97,1.06-2.3,1.71-3.73,1.84l-8.06.71c-.14.01-.36.02-.5.02Z"/>
            <path d="M262.53,227.87c-1.41,0-2.76-.52-3.8-1.48-1.16-1.05-1.82-2.53-1.82-4.15v-38.37c0-1.45.54-2.83,1.53-3.9.96-1.05,2.29-1.7,3.71-1.83l20.44-1.79c.14-.01.36-.02.5-.02,1.4,0,2.74.51,3.77,1.45,1.21,1.13,1.84,2.59,1.84,4.17v6.7c0,1.44-.54,2.82-1.52,3.88-.99,1.07-2.3,1.71-3.73,1.84l-1.3.11c.9,1.03,1.38,2.32,1.38,3.7v6.75c0,1.1-.31,2.17-.9,3.08.14-.01.32-.02.45-.02,1.4,0,2.75.52,3.78,1.46,1.18,1.09,1.83,2.56,1.83,4.16v6.7c0,1.44-.54,2.82-1.52,3.88-.97,1.06-2.3,1.71-3.73,1.84l-20.44,1.79c-.14.01-.36.02-.5.02Z"/>
            <path d="M287.57,225.68c-1.41,0-2.76-.52-3.8-1.48-1.16-1.05-1.82-2.53-1.82-4.15v-38.37c0-1.44.54-2.82,1.52-3.88.97-1.06,2.3-1.71,3.73-1.84l12.2-1.07c.53-.05,1.06-.07,1.58-.07,2.54,0,4.9.56,7.02,1.67,2.62,1.37,4.66,3.44,6.06,6.15,1.3,2.51,1.95,5.39,1.95,8.57,0,2.81-.54,5.45-1.59,7.83-.64,1.44-1.44,2.76-2.4,3.93l4.06,13.39c.02.07.12.44.12.44.1.4.15.82.15,1.23,0,2.99-2.18,5.34-5.19,5.6l-8.28.72c-.19.02-.37.02-.54.02-1.09,0-2.11-.29-2.97-.8-.92.79-2.04,1.26-3.24,1.37l-8.06.71c-.14.01-.36.02-.5.02Z"/>
            <path d="M314.87,223.29c-1.41,0-2.76-.52-3.8-1.48-1.17-1.06-1.82-2.54-1.82-4.15v-38.37c0-1.43.54-2.81,1.51-3.87.99-1.07,2.31-1.72,3.74-1.85l8.06-.71c.14-.01.36-.02.5-.02,1.4,0,2.74.52,3.77,1.45,1.2,1.1,1.85,2.58,1.85,4.17v38.37c0,1.44-.54,2.82-1.52,3.88-.97,1.06-2.3,1.71-3.73,1.84l-8.06.71c-.14.01-.36.02-.5.02Z"/>
            <path d="M337.21,221.73c-2.38,0-4.59-.43-6.57-1.26-2.69-1.14-4.82-2.93-6.33-5.32-1.48-2.33-2.22-5.03-2.22-8.02v-1.76c0-1.43.53-2.81,1.5-3.87.83-.9,1.88-1.5,3.03-1.74-1.06-1.1-2-2.36-2.81-3.79-1.3-2.28-1.96-4.96-1.96-7.95s.7-5.78,2.07-8.27c1.39-2.52,3.37-4.57,5.88-6.08,2.41-1.46,5.17-2.33,8.2-2.59.62-.05,1.24-.08,1.83-.08,2.43,0,4.69.45,6.71,1.34,2.72,1.19,4.86,3.06,6.36,5.56,1.44,2.38,2.17,5.16,2.17,8.27v1.36c0,1.44-.54,2.82-1.52,3.88-.87.95-2.02,1.57-3.27,1.78,1.41,1.28,2.55,2.74,3.41,4.35,1.06,2,1.6,4.36,1.6,6.99,0,4.74-1.56,8.74-4.63,11.89-2.98,3.06-6.88,4.83-11.57,5.24-.64.06-1.27.08-1.89.08Z"/>
            <path d="M360.73,219.28c-1.42,0-2.77-.53-3.81-1.49-1.16-1.06-1.8-2.54-1.8-4.13v-25.54l-1.6.14c-.14.01-.36.02-.5.02-1.4,0-2.75-.52-3.78-1.46-1.18-1.07-1.83-2.55-1.83-4.16v-6.7c0-1.43.53-2.8,1.49-3.86,1.01-1.09,2.33-1.74,3.75-1.86l23.78-2.08c.14-.01.36-.02.5-.02,1.4,0,2.73.52,3.77,1.45,1.2,1.1,1.85,2.58,1.85,4.17v6.7c0,1.45-.54,2.83-1.53,3.9-.96,1.05-2.29,1.7-3.72,1.83l-2.76.24v26.41c0,1.43-.53,2.81-1.5,3.87-1,1.08-2.32,1.73-3.74,1.85l-8.06.71c-.14.01-.36.02-.5.02Z"/>
            <path d="M376.46,217.9c-1.71,0-3.28-.74-4.31-2.03-1.06-1.32-1.42-3.02-1.02-4.77l8.2-38.97c.51-2.58,2.59-4.46,5.21-4.68l9.25-.81c.14-.01.39-.02.53-.02,2.73,0,4.99,1.87,5.54,4.55l8.14,37.52.04.14c.1.4.15.82.15,1.23,0,2.95-2.18,5.28-5.18,5.55l-8.24.72c-.19.02-.37.02-.55.02-1.87,0-3.49-.85-4.51-2.21-.89,1.69-2.59,2.86-4.65,3.04l-8.05.71c-.19.02-.37.02-.55.02Z"/>
          </g>
          <g>
            <path d="M182.52,233.79c-1.41,0-2.76-.52-3.8-1.48-1.16-1.05-1.82-2.53-1.82-4.15v-38.37c0-1.44.54-2.82,1.52-3.89.97-1.06,2.3-1.71,3.73-1.84l9.99-.87c.82-.07,1.64-.11,2.41-.11,4.07,0,7.52,1,10.25,2.99,2.48,1.81,5.44,5.36,5.44,12.01,0,3.47-.85,6.15-2.02,8.2,1.54,2.21,2.7,5.24,2.7,9.39,0,4.9-1.7,9.1-4.92,12.13-3.06,2.89-6.93,4.55-11.51,4.95l-11.47,1c-.14.01-.36.02-.5.02Z"/>
            <path d="M207.23,231.62c-1.71,0-3.28-.74-4.31-2.03-1.06-1.32-1.42-3.01-1.03-4.77l8.21-38.97c.51-2.58,2.59-4.46,5.21-4.69l9.25-.81c.14-.01.39-.02.53-.02,2.73,0,4.99,1.87,5.54,4.55l8.15,37.53.04.14c.1.4.15.82.15,1.23,0,2.95-2.18,5.28-5.18,5.55l-8.24.72c-.19.02-.37.02-.55.02-1.87,0-3.49-.85-4.51-2.21-.89,1.69-2.59,2.86-4.64,3.04l-8.06.71c-.19.02-.37.02-.55.02Z"/>
            <path d="M240.93,228.67c-1.41,0-2.76-.52-3.8-1.48-1.17-1.07-1.82-2.54-1.82-4.15v-25.54l-1.6.14c-.14.01-.36.02-.5.02-1.4,0-2.75-.52-3.78-1.46-1.16-1.05-1.83-2.57-1.83-4.16v-6.7c0-1.43.54-2.81,1.51-3.87,1-1.08,2.32-1.73,3.74-1.85l23.78-2.08c.14-.01.36-.02.5-.02,1.39,0,2.72.51,3.76,1.44,1.22,1.13,1.86,2.6,1.86,4.19v6.7c0,1.44-.54,2.82-1.52,3.88-.99,1.07-2.31,1.71-3.73,1.84l-2.76.24v26.41c0,1.44-.54,2.82-1.52,3.88-.97,1.06-2.3,1.71-3.73,1.84l-8.06.71c-.14.01-.36.02-.5.02Z"/>
            <path d="M261.53,226.87c-1.41,0-2.76-.52-3.8-1.48-1.16-1.05-1.82-2.53-1.82-4.15v-38.37c0-1.45.54-2.83,1.53-3.9.96-1.05,2.29-1.7,3.71-1.83l20.44-1.79c.14-.01.36-.02.5-.02,1.4,0,2.74.51,3.77,1.45,1.21,1.13,1.84,2.59,1.84,4.17v6.7c0,1.44-.54,2.82-1.52,3.88-.99,1.07-2.3,1.71-3.73,1.84l-1.3.11c.9,1.03,1.38,2.32,1.38,3.7v6.75c0,1.1-.31,2.17-.9,3.08.14-.01.32-.02.45-.02,1.4,0,2.75.52,3.78,1.46,1.18,1.09,1.83,2.56,1.83,4.16v6.7c0,1.44-.54,2.82-1.52,3.88-.97,1.06-2.3,1.71-3.73,1.84l-20.44,1.79c-.14.01-.36.02-.5.02Z"/>
            <path d="M286.57,224.68c-1.41,0-2.76-.52-3.8-1.48-1.16-1.05-1.82-2.53-1.82-4.15v-38.37c0-1.44.54-2.82,1.52-3.88.97-1.06,2.3-1.71,3.73-1.84l12.2-1.07c.53-.05,1.06-.07,1.58-.07,2.54,0,4.9.56,7.02,1.67,2.62,1.37,4.66,3.44,6.06,6.15,1.3,2.51,1.95,5.39,1.95,8.57,0,2.81-.54,5.45-1.59,7.83-.64,1.44-1.44,2.76-2.4,3.93l4.06,13.39c.02.07.12.44.12.44.1.4.15.82.15,1.23,0,2.99-2.18,5.34-5.19,5.6l-8.28.72c-.19.02-.37.02-.54.02-1.09,0-2.11-.29-2.97-.8-.92.79-2.04,1.26-3.24,1.37l-8.06.71c-.14.01-.36.02-.5.02Z"/>
            <path d="M313.87,222.29c-1.41,0-2.76-.52-3.8-1.48-1.17-1.06-1.82-2.54-1.82-4.15v-38.37c0-1.43.54-2.81,1.51-3.87.99-1.07,2.31-1.72,3.74-1.85l8.06-.71c.14-.01.36-.02.5-.02,1.4,0,2.74.52,3.77,1.45,1.2,1.1,1.85,2.58,1.85,4.17v38.37c0,1.44-.54,2.82-1.52,3.88-.97,1.06-2.3,1.71-3.73,1.84l-8.06.71c-.14.01-.36.02-.5.02Z"/>
            <path d="M336.21,220.73c-2.38,0-4.59-.43-6.57-1.26-2.69-1.14-4.82-2.93-6.33-5.32-1.48-2.33-2.22-5.03-2.22-8.02v-1.76c0-1.43.53-2.81,1.5-3.87.83-.9,1.88-1.5,3.03-1.74-1.06-1.1-2-2.36-2.81-3.79-1.3-2.28-1.96-4.96-1.96-7.95s.7-5.78,2.07-8.27c1.39-2.52,3.37-4.57,5.88-6.08,2.41-1.46,5.17-2.33,8.2-2.59.62-.05,1.24-.08,1.83-.08,2.43,0,4.69.45,6.71,1.34,2.72,1.19,4.86,3.06,6.36,5.56,1.44,2.38,2.17,5.16,2.17,8.27v1.36c0,1.44-.54,2.82-1.52,3.88-.87.95-2.02,1.57-3.27,1.78,1.41,1.28,2.55,2.74,3.41,4.35,1.06,2,1.6,4.36,1.6,6.99,0,4.74-1.56,8.74-4.63,11.89-2.98,3.06-6.88,4.83-11.57,5.24-.64.06-1.27.08-1.89.08Z"/>
            <path d="M359.73,218.28c-1.42,0-2.77-.53-3.81-1.49-1.16-1.06-1.8-2.54-1.8-4.13v-25.54l-1.6.14c-.14.01-.36.02-.5.02-1.4,0-2.75-.52-3.78-1.46-1.18-1.07-1.83-2.55-1.83-4.16v-6.7c0-1.43.53-2.8,1.49-3.86,1.01-1.09,2.33-1.74,3.75-1.86l23.78-2.08c.14-.01.36-.02.5-.02,1.4,0,2.73.52,3.77,1.45,1.2,1.1,1.85,2.58,1.85,4.17v6.7c0,1.45-.54,2.83-1.53,3.9-.96,1.05-2.29,1.7-3.72,1.83l-2.76.24v26.41c0,1.43-.53,2.81-1.5,3.87-1,1.08-2.32,1.73-3.74,1.85l-8.06.71c-.14.01-.36.02-.5.02Z"/>
            <path d="M375.46,216.9c-1.71,0-3.28-.74-4.31-2.03-1.06-1.32-1.42-3.02-1.02-4.77l8.2-38.97c.51-2.58,2.59-4.46,5.21-4.68l9.25-.81c.14-.01.39-.02.53-.02,2.73,0,4.99,1.87,5.54,4.55l8.14,37.52.04.14c.1.4.15.82.15,1.23,0,2.95-2.18,5.28-5.18,5.55l-8.24.72c-.19.02-.37.02-.55.02-1.87,0-3.49-.85-4.51-2.21-.89,1.69-2.59,2.86-4.65,3.04l-8.05.71c-.19.02-.37.02-.55.02Z"/>
          </g>
        </g>
        <g>
          <path class="cls-3" d="M202.57,224.17c-2.23,2.11-5.07,3.31-8.51,3.61l-11.47,1c-.19.02-.35-.04-.48-.16-.13-.12-.2-.28-.2-.46v-38.37c0-.19.07-.36.2-.5.13-.14.29-.22.48-.24l9.99-.87c3.94-.34,7.03.3,9.28,1.94,2.25,1.64,3.38,4.29,3.38,7.96s-1.19,6.41-3.58,8.32c-.19.13-.21.25-.06.35,2.88,1.87,4.31,4.84,4.31,8.93,0,3.56-1.12,6.39-3.35,8.5ZM191.33,196.63v7.27c0,.19.09.27.28.26l1.08-.09c1.06-.09,1.87-.49,2.44-1.21.57-.71.85-1.69.85-2.94s-.28-2.25-.85-2.88c-.57-.63-1.38-.9-2.44-.81l-1.08.09c-.19.02-.28.12-.28.31ZM195.65,218.39c.57-.81.85-1.91.85-3.31s-.28-2.49-.85-3.27c-.57-.78-1.33-1.13-2.27-1.05l-1.76.15c-.19.02-.28.12-.28.31v8.4c0,.19.09.27.28.26l1.7-.15c.98-.09,1.76-.53,2.33-1.34Z"/>
          <path class="cls-3" d="M224.37,224.5l-.74-4.87c0-.19-.11-.27-.34-.25l-6.13.54c-.23.02-.34.12-.34.31l-.68,5c-.04.42-.28.65-.74.69l-8.06.71c-.49.04-.68-.19-.57-.69l8.23-39.09c.08-.42.32-.65.74-.69l9.25-.81c.42-.04.66.15.74.56l8.17,37.66.06.22c0,.34-.21.53-.62.57l-8.23.72c-.45.04-.7-.15-.74-.56ZM218.29,212.55l3.8-.33c.15-.01.23-.12.23-.3l-2.04-12.76c-.04-.15-.09-.22-.17-.21-.08,0-.13.09-.17.24l-1.87,13.11c0,.19.08.28.23.26Z"/>
          <path class="cls-3" d="M257.54,182.69c.13.12.2.28.2.47v6.7c0,.19-.07.36-.2.5-.13.14-.29.22-.48.24l-7.04.62c-.19.02-.28.12-.28.31v30.71c0,.19-.07.36-.2.5s-.29.22-.48.24l-8.06.71c-.19.02-.35-.03-.48-.16-.13-.12-.2-.28-.2-.47v-30.71c0-.19-.09-.28-.28-.26l-6.75.59c-.19.02-.35-.04-.48-.16-.13-.12-.2-.28-.2-.46v-6.7c0-.19.07-.36.2-.5.13-.14.29-.22.48-.24l23.78-2.08c.19-.02.35.04.48.16Z"/>
          <path class="cls-3" d="M282.52,188.17c-.13.14-.29.22-.48.24l-11.41,1c-.19.02-.28.12-.28.31v7.15c0,.19.09.28.28.26l6.24-.55c.19-.02.35.04.48.16.13.12.2.28.2.46v6.75c0,.19-.07.36-.2.5-.13.15-.29.23-.48.24l-6.24.55c-.19.02-.28.12-.28.31v7.21c0,.19.09.28.28.26l11.41-1c.19-.02.35.04.48.16.13.12.2.28.2.46v6.7c0,.19-.07.36-.2.5-.13.14-.29.22-.48.24l-20.43,1.79c-.19.02-.35-.03-.48-.16-.13-.12-.2-.28-.2-.47v-38.37c0-.19.07-.36.2-.5.13-.14.29-.22.48-.24l20.43-1.79c.19-.02.35.04.48.16.13.12.2.28.2.47v6.7c0,.19-.07.36-.2.5Z"/>
          <path class="cls-3" d="M300.65,217.89l-3.86-14.7c-.04-.15-.13-.21-.28-.2l-.85.07c-.19.02-.28.12-.28.31v14.87c0,.19-.07.36-.2.5-.13.14-.29.22-.48.24l-8.06.71c-.19.02-.35-.04-.48-.16-.13-.12-.2-.28-.2-.46v-38.37c0-.19.07-.36.2-.5.13-.14.29-.22.48-.24l12.2-1.07c2.19-.19,4.14.16,5.85,1.05,1.7.89,3.02,2.23,3.95,4.03.93,1.79,1.39,3.88,1.39,6.26,0,2.12-.39,4.05-1.16,5.81-.78,1.75-1.86,3.2-3.26,4.34-.08.04-.13.1-.17.16-.04.06-.04.13,0,.2l4.88,16.09.06.22c0,.38-.21.59-.62.62l-8.29.73c-.42.04-.68-.13-.79-.5ZM295.37,187.53v8.06c0,.19.09.27.28.26l1.59-.14c1.02-.09,1.83-.54,2.44-1.35.6-.81.91-1.88.91-3.2,0-1.4-.3-2.45-.91-3.16-.61-.7-1.42-1.01-2.44-.92l-1.59.14c-.19.02-.28.12-.28.31Z"/>
          <path class="cls-3" d="M313.45,217.13c-.13-.12-.2-.28-.2-.46v-38.37c0-.19.07-.36.2-.5.13-.14.29-.22.48-.24l8.06-.71c.19-.02.35.04.48.16.13.12.2.28.2.47v38.37c0,.19-.07.36-.2.5s-.29.22-.48.24l-8.06.71c-.19.02-.35-.04-.48-.16Z"/>
          <path class="cls-3" d="M331.59,214.87c-1.74-.74-3.09-1.87-4.06-3.39-.97-1.52-1.45-3.31-1.45-5.35v-1.76c0-.19.07-.35.2-.5.13-.14.29-.22.48-.24l7.95-.7c.19-.02.35.04.48.16.13.12.2.28.2.46v1.31c0,.91.22,1.61.65,2.1.43.49.99.71,1.67.65.68-.06,1.24-.36,1.67-.91.43-.55.65-1.22.65-2.01,0-.87-.34-1.63-1.02-2.27s-2.04-1.61-4.09-2.91c-1.89-1.2-3.44-2.28-4.65-3.25s-2.25-2.22-3.12-3.76c-.87-1.53-1.31-3.36-1.31-5.48s.48-4.11,1.45-5.86c.97-1.75,2.33-3.15,4.09-4.22,1.76-1.06,3.77-1.69,6.05-1.89,2.31-.2,4.34.08,6.1.86,1.76.77,3.12,1.96,4.09,3.56.96,1.6,1.45,3.5,1.45,5.69v1.36c0,.19-.07.36-.2.5-.13.14-.29.22-.48.24l-7.89.69c-.19.02-.35-.04-.48-.16-.13-.12-.2-.28-.2-.46v-1.59c0-.83-.23-1.49-.68-1.98-.45-.49-1.02-.7-1.7-.64-.68.06-1.23.37-1.65.94-.42.57-.62,1.29-.62,2.16,0,.95.32,1.77.97,2.47.64.7,1.95,1.68,3.92,2.95,2.38,1.57,4.18,2.85,5.39,3.84,1.21.99,2.16,2.13,2.84,3.41.68,1.28,1.02,2.83,1.02,4.65,0,3.41-1.07,6.21-3.21,8.4-2.14,2.19-4.95,3.44-8.43,3.75-2.31.2-4.33-.07-6.07-.8Z"/>
          <path class="cls-3" d="M376.34,172.3c.13.12.2.28.2.47v6.7c0,.19-.07.36-.2.5-.13.14-.29.22-.48.24l-7.04.62c-.19.02-.28.12-.28.31v30.71c0,.19-.07.36-.2.5-.13.14-.29.22-.48.24l-8.06.71c-.19.02-.35-.03-.48-.16-.13-.12-.2-.28-.2-.46v-30.71c0-.19-.09-.28-.28-.26l-6.75.59c-.19.02-.35-.04-.48-.16-.13-.12-.2-.28-.2-.46v-6.7c0-.19.07-.36.2-.5.13-.14.29-.22.48-.24l23.78-2.08c.19-.02.35.04.48.16Z"/>
          <path class="cls-3" d="M392.61,209.78l-.74-4.87c0-.19-.11-.27-.34-.25l-6.13.54c-.23.02-.34.12-.34.31l-.68,5c-.04.42-.28.65-.74.69l-8.06.71c-.49.04-.68-.19-.57-.69l8.23-39.09c.08-.42.32-.65.74-.69l9.25-.81c.42-.04.66.15.74.56l8.17,37.66.06.22c0,.34-.21.53-.62.57l-8.23.72c-.45.04-.7-.15-.74-.56ZM386.53,197.83l3.8-.33c.15-.01.23-.11.23-.3l-2.04-12.76c-.04-.15-.09-.22-.17-.21-.08,0-.13.09-.17.24l-1.87,13.1c0,.19.08.28.23.26Z"/>
        </g>
        <g>
          <path class="cls-2" d="M202.57,224.17c-2.23,2.11-5.07,3.31-8.51,3.61l-11.47,1c-.19.02-.35-.04-.48-.16-.13-.12-.2-.28-.2-.46v-38.37c0-.19.07-.36.2-.5.13-.14.29-.22.48-.24l9.99-.87c3.94-.34,7.03.3,9.28,1.94,2.25,1.64,3.38,4.29,3.38,7.96s-1.19,6.41-3.58,8.32c-.19.13-.21.25-.06.35,2.88,1.87,4.31,4.84,4.31,8.93,0,3.56-1.12,6.39-3.35,8.5ZM191.33,196.63v7.27c0,.19.09.27.28.26l1.08-.09c1.06-.09,1.87-.49,2.44-1.21.57-.71.85-1.69.85-2.94s-.28-2.25-.85-2.88c-.57-.63-1.38-.9-2.44-.81l-1.08.09c-.19.02-.28.12-.28.31ZM195.65,218.39c.57-.81.85-1.91.85-3.31s-.28-2.49-.85-3.27c-.57-.78-1.33-1.13-2.27-1.05l-1.76.15c-.19.02-.28.12-.28.31v8.4c0,.19.09.27.28.26l1.7-.15c.98-.09,1.76-.53,2.33-1.34Z"/>
          <path class="cls-2" d="M224.37,224.5l-.74-4.87c0-.19-.11-.27-.34-.25l-6.13.54c-.23.02-.34.12-.34.31l-.68,5c-.04.42-.28.65-.74.69l-8.06.71c-.49.04-.68-.19-.57-.69l8.23-39.09c.08-.42.32-.65.74-.69l9.25-.81c.42-.04.66.15.74.56l8.17,37.66.06.22c0,.34-.21.53-.62.57l-8.23.72c-.45.04-.7-.15-.74-.56ZM218.29,212.55l3.8-.33c.15-.01.23-.12.23-.3l-2.04-12.76c-.04-.15-.09-.22-.17-.21-.08,0-.13.09-.17.24l-1.87,13.11c0,.19.08.28.23.26Z"/>
          <path class="cls-2" d="M257.54,182.69c.13.12.2.28.2.47v6.7c0,.19-.07.36-.2.5-.13.14-.29.22-.48.24l-7.04.62c-.19.02-.28.12-.28.31v30.71c0,.19-.07.36-.2.5s-.29.22-.48.24l-8.06.71c-.19.02-.35-.03-.48-.16-.13-.12-.2-.28-.2-.47v-30.71c0-.19-.09-.28-.28-.26l-6.75.59c-.19.02-.35-.04-.48-.16-.13-.12-.2-.28-.2-.46v-6.7c0-.19.07-.36.2-.5.13-.14.29-.22.48-.24l23.78-2.08c.19-.02.35.04.48.16Z"/>
          <path class="cls-2" d="M282.52,188.17c-.13.14-.29.22-.48.24l-11.41,1c-.19.02-.28.12-.28.31v7.15c0,.19.09.28.28.26l6.24-.55c.19-.02.35.04.48.16.13.12.2.28.2.46v6.75c0,.19-.07.36-.2.5-.13.15-.29.23-.48.24l-6.24.55c-.19.02-.28.12-.28.31v7.21c0,.19.09.28.28.26l11.41-1c.19-.02.35.04.48.16.13.12.2.28.2.46v6.7c0,.19-.07.36-.2.5-.13.14-.29.22-.48.24l-20.43,1.79c-.19.02-.35-.03-.48-.16-.13-.12-.2-.28-.2-.47v-38.37c0-.19.07-.36.2-.5.13-.14.29-.22.48-.24l20.43-1.79c.19-.02.35.04.48.16.13.12.2.28.2.47v6.7c0,.19-.07.36-.2.5Z"/>
          <path class="cls-2" d="M300.65,217.89l-3.86-14.7c-.04-.15-.13-.21-.28-.2l-.85.07c-.19.02-.28.12-.28.31v14.87c0,.19-.07.36-.2.5-.13.14-.29.22-.48.24l-8.06.71c-.19.02-.35-.04-.48-.16-.13-.12-.2-.28-.2-.46v-38.37c0-.19.07-.36.2-.5.13-.14.29-.22.48-.24l12.2-1.07c2.19-.19,4.14.16,5.85,1.05,1.7.89,3.02,2.23,3.95,4.03.93,1.79,1.39,3.88,1.39,6.26,0,2.12-.39,4.05-1.16,5.81-.78,1.75-1.86,3.2-3.26,4.34-.08.04-.13.1-.17.16-.04.06-.04.13,0,.2l4.88,16.09.06.22c0,.38-.21.59-.62.62l-8.29.73c-.42.04-.68-.13-.79-.5ZM295.37,187.53v8.06c0,.19.09.27.28.26l1.59-.14c1.02-.09,1.83-.54,2.44-1.35.6-.81.91-1.88.91-3.2,0-1.4-.3-2.45-.91-3.16-.61-.7-1.42-1.01-2.44-.92l-1.59.14c-.19.02-.28.12-.28.31Z"/>
          <path class="cls-2" d="M313.45,217.13c-.13-.12-.2-.28-.2-.46v-38.37c0-.19.07-.36.2-.5.13-.14.29-.22.48-.24l8.06-.71c.19-.02.35.04.48.16.13.12.2.28.2.47v38.37c0,.19-.07.36-.2.5s-.29.22-.48.24l-8.06.71c-.19.02-.35-.04-.48-.16Z"/>
          <path class="cls-2" d="M331.59,214.87c-1.74-.74-3.09-1.87-4.06-3.39-.97-1.52-1.45-3.31-1.45-5.35v-1.76c0-.19.07-.35.2-.5.13-.14.29-.22.48-.24l7.95-.7c.19-.02.35.04.48.16.13.12.2.28.2.46v1.31c0,.91.22,1.61.65,2.1.43.49.99.71,1.67.65.68-.06,1.24-.36,1.67-.91.43-.55.65-1.22.65-2.01,0-.87-.34-1.63-1.02-2.27s-2.04-1.61-4.09-2.91c-1.89-1.2-3.44-2.28-4.65-3.25s-2.25-2.22-3.12-3.76c-.87-1.53-1.31-3.36-1.31-5.48s.48-4.11,1.45-5.86c.97-1.75,2.33-3.15,4.09-4.22,1.76-1.06,3.77-1.69,6.05-1.89,2.31-.2,4.34.08,6.1.86,1.76.77,3.12,1.96,4.09,3.56.96,1.6,1.45,3.5,1.45,5.69v1.36c0,.19-.07.36-.2.5-.13.14-.29.22-.48.24l-7.89.69c-.19.02-.35-.04-.48-.16-.13-.12-.2-.28-.2-.46v-1.59c0-.83-.23-1.49-.68-1.98-.45-.49-1.02-.7-1.7-.64-.68.06-1.23.37-1.65.94-.42.57-.62,1.29-.62,2.16,0,.95.32,1.77.97,2.47.64.7,1.95,1.68,3.92,2.95,2.38,1.57,4.18,2.85,5.39,3.84,1.21.99,2.16,2.13,2.84,3.41.68,1.28,1.02,2.83,1.02,4.65,0,3.41-1.07,6.21-3.21,8.4-2.14,2.19-4.95,3.44-8.43,3.75-2.31.2-4.33-.07-6.07-.8Z"/>
          <path class="cls-2" d="M376.34,172.3c.13.12.2.28.2.47v6.7c0,.19-.07.36-.2.5-.13.14-.29.22-.48.24l-7.04.62c-.19.02-.28.12-.28.31v30.71c0,.19-.07.36-.2.5-.13.14-.29.22-.48.24l-8.06.71c-.19.02-.35-.03-.48-.16-.13-.12-.2-.28-.2-.46v-30.71c0-.19-.09-.28-.28-.26l-6.75.59c-.19.02-.35-.04-.48-.16-.13-.12-.2-.28-.2-.46v-6.7c0-.19.07-.36.2-.5.13-.14.29-.22.48-.24l23.78-2.08c.19-.02.35.04.48.16Z"/>
          <path class="cls-2" d="M392.61,209.78l-.74-4.87c0-.19-.11-.27-.34-.25l-6.13.54c-.23.02-.34.12-.34.31l-.68,5c-.04.42-.28.65-.74.69l-8.06.71c-.49.04-.68-.19-.57-.69l8.23-39.09c.08-.42.32-.65.74-.69l9.25-.81c.42-.04.66.15.74.56l8.17,37.66.06.22c0,.34-.21.53-.62.57l-8.23.72c-.45.04-.7-.15-.74-.56ZM386.53,197.83l3.8-.33c.15-.01.23-.11.23-.3l-2.04-12.76c-.04-.15-.09-.22-.17-.21-.08,0-.13.09-.17.24l-1.87,13.1c0,.19.08.28.23.26Z"/>
        </g>
      </g>
    </g>
  </g>
</svg>